<svg xmlns="http://www.w3.org/2000/svg" width="24" height="23" viewBox="0 0 24 23"><g><g><path fill="#71ad5f" d="M24 4.028v17.205c0 .961-.798 1.767-1.81 1.767H1.81C.824 23 0 22.22 0 21.233V4.028c0-.961.798-1.767 1.81-1.767h2.527v1.066c0 1.013.851 1.845 1.89 1.845h1.17c1.037 0 1.889-.832 1.889-1.845V2.26h5.454v1.066c0 1.013.852 1.845 1.89 1.845h1.17c1.038 0 1.89-.832 1.89-1.845V2.26h2.527c1.011 0 1.81.78 1.783 1.767zm-2.05 16.945V7.589H2.103v13.384zM6.227 4.133a.83.83 0 0 1-.851-.833V.832c0-.468.372-.832.851-.832h1.17a.83.83 0 0 1 .852.832v2.494a.831.831 0 0 1-.851.832h-1.17zm10.43 0a.83.83 0 0 1-.851-.832V.83A.83.83 0 0 1 16.656 0h1.17a.83.83 0 0 1 .852.832v2.495a.831.831 0 0 1-.851.831h-1.17zM6.546 14.32c0-2.937 2.42-5.354 5.48-5.354 3.007 0 5.482 2.365 5.482 5.354 0 2.936-2.475 5.353-5.481 5.353-3.007 0-5.482-2.39-5.482-5.353zm4.709.13c0 .208.08.39.24.52l.106.103 1.809 1.482c.186.156.532.156.718-.026.16-.156.16-.442.027-.676l-1.33-1.56a.358.358 0 0 1-.107-.233l-.186-2.885c-.027-.26-.266-.494-.532-.494s-.506.182-.532.442v.026l-.24 3.17v.053l.027.078z"/></g></g></svg>