<svg xmlns="http://www.w3.org/2000/svg" width="24" height="22" viewBox="0 0 24 22"><g><g><path fill="#71ad5f" d="M1.346 4.275c4.172-5.7 17.136-5.7 21.308 0 1.532 2.093.897 3.92-1.108 3.244l-3.683-1.241c-.761-.257-.784-.494-.143-1.308.601-.763.443-.853.108-1.015-3.326-1.604-8.33-1.604-11.656 0-.335.162-.494.252.108 1.015.64.814.618 1.051-.144 1.308L2.454 7.519c-2.005.677-2.64-1.15-1.108-3.244zm22.637 13.908c-.276 1.172-.676 2.02-1.41 3.007-5.66 1.058-16.397 1.1-21.145 0-.73-.98-1.126-1.82-1.409-2.981a3.643 3.643 0 0 1 .288-1.835c1.2-3.114 3.15-5.967 4.872-8.56.379-.476 1.275-.718 2.534-.842l.6-.029V5.295a1.126 1.126 0 0 1 2.242 0v1.58a81.835 81.835 0 0 1 2.89 0v-1.58a1.126 1.126 0 0 1 2.24 0v1.648c.201.01.402.018.602.029 1.26.124 2.155.366 2.534.842 1.722 2.593 3.671 5.446 4.872 8.56.27.642.347 1.242.29 1.809zm-6.835-5.405c0-2.105-2.306-3.811-5.148-3.811-2.843 0-5.148 1.706-5.148 3.811S9.157 16.59 12 16.59c2.842 0 5.148-1.707 5.148-3.812z"/></g></g></svg>