<svg xmlns="http://www.w3.org/2000/svg" width="19" height="20" viewBox="0 0 19 20"><g><g><path fill="#fff" d="M10.883 13.381l-5.338 5.613c-.611.643-1.425 1-2.291 1.006h-.012A3.15 3.15 0 0 1 .95 19 3.524 3.524 0 0 1 0 16.575c0-.913.338-1.769.95-2.412l5.332-5.618a7.547 7.547 0 0 0 2.327 3.562 6.83 6.83 0 0 0 2.274 1.274zm-6.727 3.494c0-.694-.528-1.25-1.187-1.25-.653 0-1.188.556-1.188 1.25 0 .687.535 1.25 1.188 1.25.659 0 1.187-.563 1.187-1.25zm11.482-8.918l2.335-2.458c.364-.383.99-.13 1.017.41.099 1.907-.629 3.852-2.183 5.19a5.737 5.737 0 0 1-7.452.034C6.551 8.754 6.392 4.43 8.863 1.829 10.104.523 11.757-.084 13.381.01c.515.029.757.687.392 1.071L11.438 3.54c-.296.31-.414.76-.313 1.186l.503 2.119c.106.448.438.798.863.91l2.018.532c.405.106.834-.018 1.129-.33z"/></g></g></svg>