<svg xmlns="http://www.w3.org/2000/svg" width="18" height="18" viewBox="0 0 18 18"><g><g><path fill="#fff" d="M3.214 0h11.572A3.226 3.226 0 0 1 18 3.214v11.571A3.226 3.226 0 0 1 14.786 18H3.214A3.222 3.222 0 0 1 0 14.785V3.215A3.222 3.222 0 0 1 3.214 0zm11.572 3.857a.644.644 0 0 0-.643-.643H3.856a.644.644 0 0 0-.642.643v1.286c0 .353.289.642.642.642h10.287a.644.644 0 0 0 .643-.642zm-9 4.5a.644.644 0 0 0-.643-.643H3.857a.644.644 0 0 0-.643.643v1.286c0 .353.29.643.643.643h1.286c.353 0 .642-.29.642-.643zm0 4.5a.645.645 0 0 0-.643-.643H3.857a.645.645 0 0 0-.643.643v1.286c0 .353.29.643.643.643h1.286c.353 0 .642-.29.642-.643zm4.5-4.5a.644.644 0 0 0-.643-.643H8.357a.645.645 0 0 0-.643.643v1.286c0 .353.29.643.643.643h1.286c.354 0 .643-.29.643-.643zm0 4.5a.645.645 0 0 0-.643-.643H8.357a.645.645 0 0 0-.643.643v1.286c0 .353.29.643.643.643h1.286c.354 0 .643-.29.643-.643zm4.5-4.5a.645.645 0 0 0-.643-.643h-1.286a.645.645 0 0 0-.642.643v5.786c0 .353.289.643.642.643h1.286c.354 0 .643-.29.643-.643z"/></g></g></svg>