<svg xmlns="http://www.w3.org/2000/svg" width="16" height="17" viewBox="0 0 16 17"><g><g><path fill="#adadad" d="M14.483 5.387A7.078 7.078 0 0 1 16 9.78c-.022 4.008-3.357 7.24-7.45 7.22-3.969-.02-7.217-3.1-7.366-6.985H.46A.446.446 0 0 1 0 9.582a.436.436 0 0 1 .105-.292l1.638-1.925a.502.502 0 0 1 .761 0L4.142 9.29a.435.435 0 0 1-.057.622.454.454 0 0 1-.298.103h-.71c.132 2.972 2.699 5.276 5.733 5.147 3.035-.129 5.388-2.643 5.256-5.615-.132-2.972-2.698-5.276-5.733-5.147a5.528 5.528 0 0 0-4.298 2.336.133.133 0 0 1-.21.009L2.74 5.469a.127.127 0 0 1 0-.162 7.5 7.5 0 0 1 4.893-2.733V1.88h-.73a.95.95 0 0 1-.96-.939c0-.518.43-.939.96-.939h3.37a.949.949 0 0 1 .996.895.944.944 0 0 1-.996.976h-.73v.696a7.455 7.455 0 0 1 3.595 1.473l.816-.8a.97.97 0 0 1 1.351-.058.923.923 0 0 1 0 1.383zM12.377 9.77c.011 1.55-.972 2.94-2.457 3.475-1.945.7-4.102-.276-4.817-2.181L8.616 9.77V6.095c2.072 0 3.752 1.645 3.752 3.675z"/></g></g></svg>