<svg xmlns="http://www.w3.org/2000/svg" width="16" height="16" viewBox="0 0 16 16"><g><g><path fill="#71ad5f" d="M3.503 15.7l-1.991-.977-1.26-.618C.094 14.027 0 13.815 0 13.64v-.586-2.543-1.607c0-.058.01-.115.026-.169a.457.457 0 0 1 .227-.297.484.484 0 0 1 .1-.048l.362-.177c.663-.325 1.327-.65 1.992-.973l1.007-.493v-.25-2.545-1.598c0-.07.014-.14.038-.203a.444.444 0 0 1 .214-.262.482.482 0 0 1 .107-.05l.359-.172c.677-.328 1.352-.656 2.03-.983A887.374 887.374 0 0 1 7.79.043.445.445 0 0 1 7.966 0a.51.51 0 0 1 .154.014.411.411 0 0 1 .136.064l.452.218c.675.327 1.352.656 2.03.983a821.716 821.716 0 0 0 1.257.61l.01.005c.18.086.262.305.247.513V6.743c.071.035.142.07.213.103.672.327 1.346.652 2.018.98l1.166.565a.486.486 0 0 1 .106.052c.132.066.211.206.235.358.007.034.01.068.01.102v4.737c0 .106-.03.204-.079.285a.448.448 0 0 1-.173.18l-.47.226c-.676.325-1.352.652-2.027.978-.428.204-.855.41-1.283.618a.478.478 0 0 1-.513 0 69.366 69.366 0 0 1-.46-.225l-2.008-.98c-.335-.166-.67-.33-1.006-.493l-.208.1c-.677.327-1.352.656-2.03.983a824.506 824.506 0 0 1-1.272.617.482.482 0 0 1-.514-.006l-.454-.223zm3.47-12.603l1.013.49c.069-.032.137-.065.205-.099l2.03-.983.307-.149-1.533-.742-1.011-.49-.207.1-2.03.983-.305.148 1.53.742zm1.52 1.667V8.07l1.728-.837 1.016-.492v-.24-2.547-.754l-.784.375-1.933.936c-.01.005-.018.01-.027.013v.239zm2.215 4.88l1.006.49.208-.1 2.028-.978.32-.154-1.515-.735-1.011-.49-.208.1c-.675.327-1.352.656-2.03.983-.101.05-.203.099-.306.148l1.508.736zm1.512 1.665V14.627l1.732-.835c.344-.165.688-.33 1.032-.497v-.241-2.543-.768c-.258.122-.517.244-.773.368a943.733 943.733 0 0 1-1.991.96v.238zM3.218 9.642l1.004.492c.068-.032.137-.065.205-.099.677-.327 1.352-.654 2.03-.98.1-.05.203-.099.304-.148l-1.528-.74-1.008-.489-.21.102a995.875 995.875 0 0 0-2.298 1.125l1.501.737zM4.73 11.31v3.315l1.73-.838 1.014-.491v-.242-2.54-.769c-.257.123-.515.245-.77.368a1613.751 1613.751 0 0 1-1.974.956v.241z"/></g></g></svg>