<svg xmlns="http://www.w3.org/2000/svg" width="16" height="14" viewBox="0 0 16 14"><g><g><path fill="#5d8a51" d="M12.338 10.59c.253-2.373.927-5.03 2.545-7.303a.338.338 0 0 0-.421-.502c-1.753.836-3.169 1.955-4.348 3.21-.068.083-.203.05-.22-.068C9.49 4.122 8.783 2.25 7.67.177c-.169-.3-.64-.2-.64.151.016 2.19-.422 4.83-1.012 7.37-.016.101-.168.135-.236.05-1.129-1.336-2.527-2.54-4.33-3.409a.338.338 0 0 0-.422.502c1.365 1.989 1.972 4.278 2.208 6.334.017.134-.135.2-.236.1-.775-.802-1.618-1.537-2.494-2.038-.304-.184-.64.15-.455.467.674 1.104 1.146 2.658 1.466 4.045.033.15.168.25.32.25h12c.15 0 .286-.1.32-.25.37-1.671.943-3.627 1.786-4.93.185-.285-.135-.652-.438-.485-1.045.568-2.04 1.42-2.95 2.373-.084.084-.236.017-.219-.117z"/></g></g></svg>