<svg xmlns="http://www.w3.org/2000/svg" width="23" height="16" viewBox="0 0 23 16"><g><g><path fill="#494949" d="M11.2 10.18c0 3.214-2.5 5.82-5.584 5.82C2.53 16 .29 13.484.03 10.28-.369 5.394 3.194 1.302 7.52 0 6.046.929 5.017 2.544 4.846 4.424c.252-.038.508-.064.77-.064 3.084 0 5.585 2.605 5.585 5.82zm11.8 0c0 3.214-2.5 5.82-5.586 5.82-3.085 0-5.324-2.516-5.586-5.72C11.43 5.394 14.993 1.302 19.32 0c-1.475.929-2.503 2.544-2.675 4.424.253-.038.509-.064.77-.064C20.5 4.36 23 6.965 23 10.18z"/></g></g></svg>