<svg xmlns="http://www.w3.org/2000/svg" width="14" height="16" viewBox="0 0 14 16"><g><g><path fill="#71ad5f" d="M1.968 2.909L4.34.178a.52.52 0 0 1 .888.185l.29.894c2.235-.49 4.693.118 6.434 1.854a6.837 6.837 0 0 1 1.74 6.912c-.221.708-1.126.944-1.655.421a.95.95 0 0 1-.239-.978 4.958 4.958 0 0 0-1.246-4.956 5.034 5.034 0 0 0-4.454-1.365l.273.876c.12.388-.239.742-.631.641l-3.516-.927a.502.502 0 0 1-.256-.826zm.086 9.98A6.861 6.861 0 0 1 .296 5.994c.222-.708 1.126-.944 1.655-.422a.95.95 0 0 1 .239.978 4.959 4.959 0 0 0 1.246 4.956 5.034 5.034 0 0 0 4.454 1.366l-.273-.877c-.12-.388.239-.742.631-.64l3.533.91c.375.101.512.54.256.826l-2.372 2.731a.52.52 0 0 1-.888-.185l-.29-.894c-2.235.49-4.693-.118-6.434-1.854z"/></g></g></svg>