<svg xmlns="http://www.w3.org/2000/svg" width="16" height="12" viewBox="0 0 16 12">
<defs>
    <style>
      .cls-1 {
        fill: #fff;
        fill-rule: evenodd;
      }
    </style>
  </defs>
  <path class="cls-1" d="M864.646,937.175l-4.934-4.841a1.2,1.2,0,0,0-1.668,0,1.15,1.15,0,0,0,0,1.635l2.914,2.876H850.179a1.157,1.157,0,1,0,0,2.313h10.779l-2.914,2.859a1.151,1.151,0,0,0,0,1.636,1.2,1.2,0,0,0,1.684,0l4.918-4.826A1.164,1.164,0,0,0,865,938,1.1,1.1,0,0,0,864.646,937.175Z" transform="translate(-849 -932)"/>
</svg>
