<svg xmlns="http://www.w3.org/2000/svg" width="16" height="16" viewBox="0 0 16 16"><g><g><path fill="#7db36d" d="M6.723 5.725zm.478-.55l.01-.008a2.714 2.714 0 0 0-.01.008zm.17-.1l-.006.001.005-.002zm.533-.145l.01-.002-.01.002zm-.146.02zm.863.12zm.557.485l.003.005c0-.002-.002-.003-.003-.005zm.24.687zm-.02-.137zm-.12.866zm-.095.166a.83.83 0 0 0 .004-.005l-.004.005zm-.311.327c.088-.076.17-.159.246-.247.073-.103.136-.21.19-.325a2.22 2.22 0 0 0 .097-.355c.01-.124.01-.247 0-.37a2.286 2.286 0 0 0-.097-.36 2.279 2.279 0 0 0-.193-.329 2.246 2.246 0 0 0-.252-.25 2.198 2.198 0 0 0-.322-.188 2.257 2.257 0 0 0-.36-.096c-.12-.01-.241-.01-.362 0a2.274 2.274 0 0 0-.36.097c-.116.055-.226.12-.33.193-.09.077-.173.161-.25.251a2.2 2.2 0 0 0-.187.323 2.27 2.27 0 0 0-.096.357 2.144 2.144 0 0 0-.009.184c-.002.417-.337.725-.742.736-.398.018-.743-.354-.741-.741.004-.471.118-.921.33-1.34.203-.406.516-.734.875-1.006.287-.215.628-.374.976-.46a3.075 3.075 0 0 1 1.293-.027c.765.137 1.437.635 1.859 1.274.446.677.568 1.568.35 2.344a2.987 2.987 0 0 1-.646 1.165 3.062 3.062 0 0 1-.497.432c-.115.085-.243.153-.361.234-.089.077-.172.16-.248.248-.072.103-.136.211-.19.325a2.215 2.215 0 0 0-.095.353 2.215 2.215 0 0 0-.01.19c-.001.415-.336.723-.74.741-.398.019-.742-.354-.74-.74a2.883 2.883 0 0 1 .473-1.585c.152-.225.328-.44.541-.613.126-.1.254-.202.393-.285.07-.043.138-.084.205-.13zm.003 1.991zm.095-.167l-.003.005c0-.002.002-.003.003-.005zm-.23 3.139a.725.725 0 0 1-.101.374l-.117.15a.73.73 0 0 1-.328.191 7.806 7.806 0 0 0-.196.026.544.544 0 0 1-.285-.063.55.55 0 0 1-.239-.154.547.547 0 0 1-.154-.239.56.56 0 0 1-.062-.285v-.093a.757.757 0 0 1 .101-.374l.117-.15a.736.736 0 0 1 .328-.19c.065-.008.131-.017.196-.027a.544.544 0 0 1 .285.063c.093.03.172.082.24.154a.549.549 0 0 1 .153.24.56.56 0 0 1 .063.284v.093zm4.485-8.34l.01.013a5.679 5.679 0 0 0-.01-.012zm.78 1.354zm.465 1.706zm-.004-.025zm-.46 3.432zm-.8 1.379l.029-.037-.029.037zm-1.261 1.263l-.047.037a7.6 7.6 0 0 0 .047-.037zm-1.389.808zm-1.703.464zm.032-.004zm-3.439-.46zm-1.38-.802l.04.031-.04-.03zm-1.27-1.271zM2 10.556zM1.534 8.85zm.004.028zM2 5.438zm.794-1.37l-.025.032.025-.032zM4.07 2.791c.012-.01.024-.02.036-.028l-.036.028zm1.388-.804zm1.688-.459zm-.021.003zm3.42.455zm1.378.796zm1.732-.444l.002.002c.306.306.58.641.837.99.952 1.294 1.467 2.9 1.504 4.503a7.978 7.978 0 0 1-2.978 6.391 8.51 8.51 0 0 1-1.083.743 8.377 8.377 0 0 1-1.163.537c-1.489.565-3.157.64-4.7.263a7.957 7.957 0 0 1-4.118-2.528A8.108 8.108 0 0 1 .63 11.1a8.188 8.188 0 0 1-.594-2.39c-.158-1.592.207-3.234.985-4.628.798-1.428 2.066-2.626 3.553-3.315A8.518 8.518 0 0 1 5.765.314c.417-.123.84-.199 1.27-.254A8.025 8.025 0 0 1 9.39.12c1.606.268 3.114 1.072 4.266 2.218zm-1.665.497a7.277 7.277 0 0 0-1.489-.866 7.3 7.3 0 0 0-1.631-.44 7.462 7.462 0 0 0-1.736.001 7.3 7.3 0 0 0-1.633.44 7.393 7.393 0 0 0-1.499.874 7.5 7.5 0 0 0-1.16 1.163 7.294 7.294 0 0 0-.864 1.485 7.306 7.306 0 0 0-.441 1.638 7.484 7.484 0 0 0 0 1.736c.083.56.23 1.11.441 1.638.23.53.523 1.03.87 1.491.342.427.73.816 1.157 1.159.46.348.962.64 1.491.87.527.21 1.077.358 1.637.441.577.068 1.16.068 1.738 0a7.292 7.292 0 0 0 1.635-.44 7.404 7.404 0 0 0 1.499-.876 7.514 7.514 0 0 0 1.155-1.159c.347-.459.636-.959.866-1.486a7.31 7.31 0 0 0 .442-1.642 7.485 7.485 0 0 0 0-1.729 7.306 7.306 0 0 0-.442-1.64 7.416 7.416 0 0 0-.868-1.49 7.56 7.56 0 0 0-1.168-1.168z"/></g></g></svg>