<svg xmlns="http://www.w3.org/2000/svg" width="16" height="16" viewBox="0 0 16 16"><g><g><path fill="#5d8a51" d="M16 .889v15.11h-3.035l-.889-.888h-1.041l-.89.889H7.633l-.89-.889h-1.04l-.89.889H2.3l-.89-.889H0V0h2.146l.889.889h1.041l.89-.89h2.513l.889.89H9.41l.889-.89h2.513l.89.89zm-14 .85l-.406-.406h-.26v12.445H2zm2.222.483H2.89v12.444h1.333zm3.111-.483l-.406-.406h-1.41l-.406.406v12.039h2.222zm2.222.483H8.222v12.444h1.333zm3.112 11.556V1.739l-.407-.406h-1.41l-.406.406v12.039zm2-11.556h-1.111v12.444h1.11z"/></g></g></svg>