<svg xmlns="http://www.w3.org/2000/svg" width="16" height="14" viewBox="0 0 16 14"><g><g><path fill="#71ad5f" d="M14.933 11.846H1.067C.48 11.846 0 12.331 0 12.923S.48 14 1.067 14h13.866C15.52 14 16 13.515 16 12.923s-.48-1.077-1.067-1.077zm.694-9.1c-.214-.054-.48 0-.587.215l-2.667 3.877c-.106.108-.32.162-.48.162-.213 0-.373-.108-.426-.323L8.48.323C8.373.107 8.213 0 8 0c-.213 0-.427.161-.48.323L4.96 6.677A.465.465 0 0 1 4.533 7c-.16.054-.373-.054-.48-.216L.96 2.907C.8 2.692.587 2.638.373 2.746A.516.516 0 0 0 0 3.231v4.846c0 1.507 1.173 2.692 2.667 2.692h10.666C14.827 10.77 16 9.584 16 8.077V3.23c0-.216-.16-.431-.373-.485z"/></g></g></svg>