<svg xmlns="http://www.w3.org/2000/svg" width="16" height="16" viewBox="0 0 16 16"><g><g><path fill="#adadad" d="M12.09 12.713c.01 1.247-.648 2.105-1.818 2.646-.48.221-.97.421-1.486.638l2.8-3.81c-.434.263-1.249.833-2.026 1.911a8.584 8.584 0 0 0-1.025 1.897c-.027-.13-.05-.235-.067-.34-.09-.565-.11-1.13.035-1.69.147-.57.472-1.044.937-1.434.754-.631 1.653-1.05 2.605-1.534.017.607.042 1.161.046 1.716zM9.243 10.9c-.329.589-.684 1.165-1.032 1.745l-.217-3.908c-.174.454-.45 1.368-.366 2.664.03.451.098.87.184 1.246-.42-.585-.854-1.163-1.131-1.828a1.828 1.828 0 0 1-.016-1.428c.31-.779.834-1.444 1.326-2.174.533.83 1.15 1.578 1.376 2.51.096.394.079.808-.124 1.173zM7.268 16c-1.002-.375-1.951-.712-2.672-1.43-.476-.476-.653-1.071-.68-1.694-.026-.574.027-1.151.048-1.726 0-.03.025-.058.055-.124.94.491 1.896.915 2.661 1.615.592.542.9 1.205.903 1.975.002.357-.026.714-.052 1.093l-2.677-3.152c.207.538.636 1.5 1.436 2.46.334.401.668.724.978.983zM16 4.362v3.214l-1.347-.777v5.836c0 .586-.51 1.063-1.14 1.063h-.818c.086-.31.13-.64.127-.99a30 30 0 0 0-.007-.417h.328V5.927l-1.358-.784-2.438-1.408-1.357-.783-1.354.783-2.433 1.408-1.349.78v6.368h.327c-.005.202-.005.406.004.613.012.282.054.545.12.794h-.821c-.629 0-1.14-.477-1.14-1.062v-5.84L0 7.575V4.358L7.216.184a1.557 1.557 0 0 1 1.545 0l2.373 1.37V.632c0-.173.15-.313.336-.313h2.015c.186 0 .336.14.336.313v2.473z"/></g></g></svg>