<svg xmlns="http://www.w3.org/2000/svg" width="16" height="16" viewBox="0 0 16 16"><g><g><path fill="#71ad5f" d="M16 4.784V16H0V9.435h1v-1.86h.757v1.86h1.08V0l5.785 1.94V.717h.756V2.18l.568.213V.717h.757v1.914l1.108.372v1.78zM2.649 13.847h-1.19v.77h1.19zm0-1.488h-1.19v.77h1.19zm0-1.489h-1.19v.77h1.19zm2.243 2.977h-1.19v.77h1.19zm0-1.488h-1.19v.77h1.19zm0-1.489h-1.19v.77h1.19zm6.243 2.87H6.351v1.037h4.784zm0-1.86H6.351v1.116h4.784zm0-1.674H6.351v.93h4.784zm0-1.621H3.513v.85h2.838v.027h4.784zm0-1.781H3.513v1.063h7.622zm0-1.807H3.513V6.06h7.622zm3.27 8.478h-1.594v1.09h1.594zm0-1.807h-1.594v1.063h1.594zm0-1.834h-1.594v1.09h1.594zm0-1.808h-1.594V9.09h1.594zm0-1.833h-1.594v1.09h1.594z"/></g></g></svg>