<svg xmlns="http://www.w3.org/2000/svg" width="16" height="17" viewBox="0 0 16 17"><g><g><path fill="#71ad5f" d="M14.483 5.388A7.078 7.078 0 0 1 16 9.78c-.022 4.008-3.357 7.24-7.45 7.22-3.969-.02-7.217-3.1-7.366-6.985H.46A.446.446 0 0 1 0 9.583a.435.435 0 0 1 .105-.293l1.638-1.925a.502.502 0 0 1 .761 0L4.142 9.29a.435.435 0 0 1-.057.622.456.456 0 0 1-.298.103h-.71c.132 2.972 2.699 5.276 5.733 5.147 3.035-.129 5.388-2.643 5.256-5.615-.132-2.972-2.698-5.276-5.733-5.147a5.528 5.528 0 0 0-4.298 2.336.131.131 0 0 1-.103.055.136.136 0 0 1-.106-.046L2.74 5.469a.127.127 0 0 1 0-.161 7.498 7.498 0 0 1 4.893-2.734V1.88h-.73a.95.95 0 0 1-.96-.94.95.95 0 0 1 .96-.939h3.37a.948.948 0 0 1 .996.896.944.944 0 0 1-.996.976h-.73v.694a7.458 7.458 0 0 1 3.595 1.474l.816-.8a.97.97 0 0 1 1.351-.058.923.923 0 0 1 0 1.383zM12.377 9.77c.011 1.55-.972 2.94-2.457 3.475-1.945.7-4.102-.276-4.817-2.18L8.616 9.77V6.095c2.072 0 3.752 1.645 3.752 3.675z"/></g></g></svg>