<svg xmlns="http://www.w3.org/2000/svg" width="16" height="16" viewBox="0 0 16 16"><g><g><path fill="#71ad5f" d="M3.503 15.7l-1.991-.977-1.26-.618c-.159-.077-.252-.29-.252-.466v-.585-2.543-1.608c0-.057.01-.114.026-.168a.457.457 0 0 1 .227-.297.486.486 0 0 1 .1-.047l.362-.178c.663-.325 1.327-.65 1.992-.973.336-.164.671-.33 1.007-.493v-.25-2.545-1.597c0-.07.013-.139.038-.202a.446.446 0 0 1 .214-.264.481.481 0 0 1 .108-.05l.358-.172c.677-.328 1.352-.656 2.03-.983A882.03 882.03 0 0 1 7.79.043.446.446 0 0 1 7.968 0c.049-.003.099.001.152.014a.411.411 0 0 1 .136.064l.452.218c.675.327 1.352.656 2.03.983l1.177.571a.489.489 0 0 1 .09.043c.18.087.262.305.247.513v4.336c.071.035.142.07.213.103.672.327 1.346.652 2.018.98l1.166.565a.488.488 0 0 1 .107.052c.13.066.209.204.234.355.006.034.01.07.01.105v4.736a.544.544 0 0 1-.077.283.453.453 0 0 1-.175.183l-.47.226-2.027.977c-.428.205-.855.412-1.283.618a.478.478 0 0 1-.513 0 72.139 72.139 0 0 1-.46-.224l-2.008-.981c-.335-.165-.67-.329-1.006-.492l-.208.1c-.677.327-1.352.656-2.03.983-.42.205-.844.41-1.267.614l-.005.003a.482.482 0 0 1-.514-.006l-.454-.223zm3.47-12.603l1.013.49c.068-.032.137-.065.205-.099l2.03-.983.307-.149-1.533-.742a737.24 737.24 0 0 0-1.011-.49l-.207.1-2.03.983-.305.148 1.53.742zm1.52 1.667v3.307l1.728-.837 1.015-.492v-.24-2.547-.754l-.783.375-1.933.936-.027.013v.239zm2.215 4.88l1.006.49.208-.1 2.028-.978.32-.154-1.515-.735-1.011-.49-.208.1c-.675.327-1.352.656-2.03.983-.101.05-.203.099-.306.148l1.508.735zm1.512 1.665v3.318l1.732-.835c.344-.165.688-.33 1.032-.497v-.241-2.543-.769c-.258.123-.517.245-.773.369a919.48 919.48 0 0 1-1.991.96v.238zM3.218 9.642l1.004.492c.069-.032.137-.065.205-.099.677-.327 1.352-.654 2.03-.98.1-.05.202-.099.304-.148-.51-.247-1.018-.494-1.529-.74l-1.008-.489-.209.102-1.99.974-.308.15c.5.246 1 .493 1.501.738zm1.512 1.669v3.315c.576-.28 1.153-.559 1.73-.837l1.014-.492v-.241-2.54-.77l-.77.368a1707.588 1707.588 0 0 1-1.974.956v.241z"/></g></g></svg>