<svg xmlns="http://www.w3.org/2000/svg" width="16" height="14" viewBox="0 0 16 14"><g><g><path fill="#71ad5f" d="M16 .312v.93a.316.316 0 0 1-.321.313h-2.68V3.11h2.677c.18 0 .32.138.324.313v.933a.316.316 0 0 1-.321.313h-2.68V6.22h2.677c.18 0 .32.137.324.312v.934a.316.316 0 0 1-.321.312h-2.68V9.33h2.677a.32.32 0 0 1 .324.312v.934a.316.316 0 0 1-.321.312h-2.68v1.552h2.677a.32.32 0 0 1 .324.313v.933a.316.316 0 0 1-.321.313H.32A.316.316 0 0 1 0 13.687v-.933c0-.175.142-.313.321-.313H3V10.89H.32A.316.316 0 0 1 0 10.577v-.934c0-.174.145-.312.321-.312H3V7.779H.32A.316.316 0 0 1 0 7.467v-.934c0-.175.145-.312.321-.312H3V4.669H.32A.316.316 0 0 1 0 4.356v-.933c0-.175.142-.313.321-.313H3V1.555H.32A.316.316 0 0 1 0 1.243v-.93C0 .137.142 0 .321 0h15.355A.32.32 0 0 1 16 .312zM4 1.555V3.11h8V1.555zM4 4.67V6.22h8V4.669zm0 3.11V9.33h8V7.779zm0 3.11v1.552h8V10.89z"/></g></g></svg>