<svg xmlns="http://www.w3.org/2000/svg" width="24" height="24" viewBox="0 0 24 24"><g><g><path fill="#fff" d="M24 2.518V21.48A2.52 2.52 0 0 1 21.479 24H2.518A2.521 2.521 0 0 1 0 21.48V2.518A2.52 2.52 0 0 1 2.518-.001h18.96A2.52 2.52 0 0 1 24 2.518zM7.65 16.813l1.345-1.37a.289.289 0 0 0-.406-.406l-1.355 1.355-1.354-1.355a.288.288 0 0 0-.406.407l1.354 1.354-1.354 1.354a.288.288 0 0 0 .406.407l1.354-1.355L8.59 18.56a.288.288 0 1 0 .406-.407zM9.44 7.825a.288.288 0 0 0 0-.576H7.5V5.307a.288.288 0 1 0-.577 0v1.942H5.027a.288.288 0 0 0 0 .576h1.9v1.899a.288.288 0 1 0 .575 0v-1.91h1.94zm9.733 10.03a.288.288 0 0 0-.288-.287h-4.423a.288.288 0 1 0 0 .576h4.423c.159 0 .288-.13.288-.288zm0-2.276a.288.288 0 0 0-.288-.288h-4.423a.288.288 0 0 0 0 .576h4.423c.159 0 .288-.128.288-.288zm0-8.042a.288.288 0 0 0-.288-.288h-4.423a.288.288 0 0 0 0 .576h4.423c.159 0 .288-.129.288-.288z"/></g></g></svg>