<svg xmlns="http://www.w3.org/2000/svg" width="25" height="26" viewBox="0 0 25 26"><defs><mask id="ma70b" width="2" height="2" x="-1" y="-1"><path fill="#fff" d="M0 0h24v24H0z"/><path d="M21.439 0a2.568 2.568 0 0 1 2.56 2.58v18.848a2.56 2.56 0 0 1-2.56 2.571H2.56A2.56 2.56 0 0 1 0 21.428V2.58A2.568 2.568 0 0 1 2.56 0zM2.287 3.156a.855.855 0 1 0 1.711-.01.855.855 0 0 0-1.71.01zm17.715 0c0 .466.374.85.85.85s.86-.384.86-.85a.86.86 0 0 0-.86-.86.851.851 0 0 0-.85.86zm-7.127.992c-.617.01-1.356.01-2.075.01a.597.597 0 0 0-.546.415l-.446 1.539c-.263.102-.536.203-.8.334l-1.396-.78a.602.602 0 0 0-.678.101L5.476 7.237a.567.567 0 0 0-.101.678l.77 1.397a5.646 5.646 0 0 0-.325.809l-1.549.445a.584.584 0 0 0-.415.548l-.01 2.074c0 .254.182.486.425.557l1.55.445c.09.273.202.537.333.79l-.79 1.397a.6.6 0 0 0 .092.688l1.457 1.458a.584.584 0 0 0 .689.1l1.417-.768c.253.131.526.233.8.324l.425 1.548a.61.61 0 0 0 .556.416l2.096.01a.583.583 0 0 0 .546-.426l.436-1.538c.273-.101.536-.213.8-.345l1.406.8c.223.112.506.071.678-.1l1.468-1.469a.598.598 0 0 0 .101-.678l-.79-1.407c.132-.264.244-.527.345-.81l1.539-.435a.596.596 0 0 0 .425-.557l-.01-2.085a.587.587 0 0 0-.426-.547l-1.528-.435a8.003 8.003 0 0 0-.344-.8l.78-1.406a.582.582 0 0 0-.092-.678l-1.468-1.469a.598.598 0 0 0-.688-.1l-1.387.779c-.263-.132-.536-.232-.81-.334l-.455-1.55a.587.587 0 0 0-.547-.414zm-.88 3.857a4 4 0 0 1 3.998 3.998 4.007 4.007 0 0 1-3.998 3.998 4.013 4.013 0 0 1-3.999-3.998 4.007 4.007 0 0 1 3.999-3.998zM9.14 12.004a2.851 2.851 0 0 0 2.855 2.854 2.853 2.853 0 0 0 2.864-2.854 2.856 2.856 0 0 0-2.864-2.865 2.853 2.853 0 0 0-2.855 2.865zm-6.853 8.857c0 .475.385.86.85.86a.86.86 0 0 0 .861-.86.855.855 0 1 0-1.71 0zm17.715 0c0 .475.374.86.85.86a.86.86 0 0 0 .86-.86.857.857 0 0 0-.86-.85.849.849 0 0 0-.85.85z"/></mask><filter id="ma70a" width="45.5" height="46.6" x="-10" y="-10" filterUnits="userSpaceOnUse"><feOffset dx="1.5" dy="2.6" in="SourceGraphic" result="FeOffset1077Out"/><feGaussianBlur in="FeOffset1077Out" result="FeGaussianBlur1078Out" stdDeviation="0 0"/></filter><clipPath id="ma70c"><path fill="#fff" d="M21.439 0a2.568 2.568 0 0 1 2.56 2.58v18.848a2.56 2.56 0 0 1-2.56 2.571H2.56A2.56 2.56 0 0 1 0 21.428V2.58A2.568 2.568 0 0 1 2.56 0zM2.287 3.156a.855.855 0 1 0 1.711-.01.855.855 0 0 0-1.71.01zm17.715 0c0 .466.374.85.85.85s.86-.384.86-.85a.86.86 0 0 0-.86-.86.851.851 0 0 0-.85.86zm-7.127.992c-.617.01-1.356.01-2.075.01a.597.597 0 0 0-.546.415l-.446 1.539c-.263.102-.536.203-.8.334l-1.396-.78a.602.602 0 0 0-.678.101L5.476 7.237a.567.567 0 0 0-.101.678l.77 1.397a5.646 5.646 0 0 0-.325.809l-1.549.445a.584.584 0 0 0-.415.548l-.01 2.074c0 .254.182.486.425.557l1.55.445c.09.273.202.537.333.79l-.79 1.397a.6.6 0 0 0 .092.688l1.457 1.458a.584.584 0 0 0 .689.1l1.417-.768c.253.131.526.233.8.324l.425 1.548a.61.61 0 0 0 .556.416l2.096.01a.583.583 0 0 0 .546-.426l.436-1.538c.273-.101.536-.213.8-.345l1.406.8c.223.112.506.071.678-.1l1.468-1.469a.598.598 0 0 0 .101-.678l-.79-1.407c.132-.264.244-.527.345-.81l1.539-.435a.596.596 0 0 0 .425-.557l-.01-2.085a.587.587 0 0 0-.426-.547l-1.528-.435a8.003 8.003 0 0 0-.344-.8l.78-1.406a.582.582 0 0 0-.092-.678l-1.468-1.469a.598.598 0 0 0-.688-.1l-1.387.779c-.263-.132-.536-.232-.81-.334l-.455-1.55a.587.587 0 0 0-.547-.414zm-.88 3.857a4 4 0 0 1 3.998 3.998 4.007 4.007 0 0 1-3.998 3.998 4.013 4.013 0 0 1-3.999-3.998 4.007 4.007 0 0 1 3.999-3.998zM9.14 12.004a2.851 2.851 0 0 0 2.855 2.854 2.853 2.853 0 0 0 2.864-2.854 2.856 2.856 0 0 0-2.864-2.865 2.853 2.853 0 0 0-2.855 2.865zm-6.853 8.857c0 .475.385.86.85.86a.86.86 0 0 0 .861-.86.855.855 0 1 0-1.71 0zm17.715 0c0 .475.374.86.85.86a.86.86 0 0 0 .86-.86.857.857 0 0 0-.86-.85.849.849 0 0 0-.85.85z"/></clipPath></defs><g><g><g filter="url(#ma70a)"><path fill="none" d="M21.439 0a2.568 2.568 0 0 1 2.56 2.58v18.848a2.56 2.56 0 0 1-2.56 2.571H2.56A2.56 2.56 0 0 1 0 21.428V2.58A2.568 2.568 0 0 1 2.56 0zM2.287 3.156a.855.855 0 1 0 1.711-.01.855.855 0 0 0-1.71.01zm17.715 0c0 .466.374.85.85.85s.86-.384.86-.85a.86.86 0 0 0-.86-.86.851.851 0 0 0-.85.86zm-7.127.992c-.617.01-1.356.01-2.075.01a.597.597 0 0 0-.546.415l-.446 1.539c-.263.102-.536.203-.8.334l-1.396-.78a.602.602 0 0 0-.678.101L5.476 7.237a.567.567 0 0 0-.101.678l.77 1.397a5.646 5.646 0 0 0-.325.809l-1.549.445a.584.584 0 0 0-.415.548l-.01 2.074c0 .254.182.486.425.557l1.55.445c.09.273.202.537.333.79l-.79 1.397a.6.6 0 0 0 .092.688l1.457 1.458a.584.584 0 0 0 .689.1l1.417-.768c.253.131.526.233.8.324l.425 1.548a.61.61 0 0 0 .556.416l2.096.01a.583.583 0 0 0 .546-.426l.436-1.538c.273-.101.536-.213.8-.345l1.406.8c.223.112.506.071.678-.1l1.468-1.469a.598.598 0 0 0 .101-.678l-.79-1.407c.132-.264.244-.527.345-.81l1.539-.435a.596.596 0 0 0 .425-.557l-.01-2.085a.587.587 0 0 0-.426-.547l-1.528-.435a8.003 8.003 0 0 0-.344-.8l.78-1.406a.582.582 0 0 0-.092-.678l-1.468-1.469a.598.598 0 0 0-.688-.1l-1.387.779c-.263-.132-.536-.232-.81-.334l-.455-1.55a.587.587 0 0 0-.547-.414zm-.88 3.857a4 4 0 0 1 3.998 3.998 4.007 4.007 0 0 1-3.998 3.998 4.013 4.013 0 0 1-3.999-3.998 4.007 4.007 0 0 1 3.999-3.998zM9.14 12.004a2.851 2.851 0 0 0 2.855 2.854 2.853 2.853 0 0 0 2.864-2.854 2.856 2.856 0 0 0-2.864-2.865 2.853 2.853 0 0 0-2.855 2.865zm-6.853 8.857c0 .475.385.86.85.86a.86.86 0 0 0 .861-.86.855.855 0 1 0-1.71 0zm17.715 0c0 .475.374.86.85.86a.86.86 0 0 0 .86-.86.857.857 0 0 0-.86-.85.849.849 0 0 0-.85.85z" mask="url(&quot;#ma70b&quot;)"/><path fill="#b7c4b4" fill-opacity=".2" d="M21.439 0a2.568 2.568 0 0 1 2.56 2.58v18.848a2.56 2.56 0 0 1-2.56 2.571H2.56A2.56 2.56 0 0 1 0 21.428V2.58A2.568 2.568 0 0 1 2.56 0zM2.287 3.156a.855.855 0 1 0 1.711-.01.855.855 0 0 0-1.71.01zm17.715 0c0 .466.374.85.85.85s.86-.384.86-.85a.86.86 0 0 0-.86-.86.851.851 0 0 0-.85.86zm-7.127.992c-.617.01-1.356.01-2.075.01a.597.597 0 0 0-.546.415l-.446 1.539c-.263.102-.536.203-.8.334l-1.396-.78a.602.602 0 0 0-.678.101L5.476 7.237a.567.567 0 0 0-.101.678l.77 1.397a5.646 5.646 0 0 0-.325.809l-1.549.445a.584.584 0 0 0-.415.548l-.01 2.074c0 .254.182.486.425.557l1.55.445c.09.273.202.537.333.79l-.79 1.397a.6.6 0 0 0 .092.688l1.457 1.458a.584.584 0 0 0 .689.1l1.417-.768c.253.131.526.233.8.324l.425 1.548a.61.61 0 0 0 .556.416l2.096.01a.583.583 0 0 0 .546-.426l.436-1.538c.273-.101.536-.213.8-.345l1.406.8c.223.112.506.071.678-.1l1.468-1.469a.598.598 0 0 0 .101-.678l-.79-1.407c.132-.264.244-.527.345-.81l1.539-.435a.596.596 0 0 0 .425-.557l-.01-2.085a.587.587 0 0 0-.426-.547l-1.528-.435a8.003 8.003 0 0 0-.344-.8l.78-1.406a.582.582 0 0 0-.092-.678l-1.468-1.469a.598.598 0 0 0-.688-.1l-1.387.779c-.263-.132-.536-.232-.81-.334l-.455-1.55a.587.587 0 0 0-.547-.414zm-.88 3.857a4 4 0 0 1 3.998 3.998 4.007 4.007 0 0 1-3.998 3.998 4.013 4.013 0 0 1-3.999-3.998 4.007 4.007 0 0 1 3.999-3.998zM9.14 12.004a2.851 2.851 0 0 0 2.855 2.854 2.853 2.853 0 0 0 2.864-2.854 2.856 2.856 0 0 0-2.864-2.865 2.853 2.853 0 0 0-2.855 2.865zm-6.853 8.857c0 .475.385.86.85.86a.86.86 0 0 0 .861-.86.855.855 0 1 0-1.71 0zm17.715 0c0 .475.374.86.85.86a.86.86 0 0 0 .86-.86.857.857 0 0 0-.86-.85.849.849 0 0 0-.85.85z"/></g><path fill="#fff" d="M21.439 0a2.568 2.568 0 0 1 2.56 2.58v18.848a2.56 2.56 0 0 1-2.56 2.571H2.56A2.56 2.56 0 0 1 0 21.428V2.58A2.568 2.568 0 0 1 2.56 0zM2.287 3.156a.855.855 0 1 0 1.711-.01.855.855 0 0 0-1.71.01zm17.715 0c0 .466.374.85.85.85s.86-.384.86-.85a.86.86 0 0 0-.86-.86.851.851 0 0 0-.85.86zm-7.127.992c-.617.01-1.356.01-2.075.01a.597.597 0 0 0-.546.415l-.446 1.539c-.263.102-.536.203-.8.334l-1.396-.78a.602.602 0 0 0-.678.101L5.476 7.237a.567.567 0 0 0-.101.678l.77 1.397a5.646 5.646 0 0 0-.325.809l-1.549.445a.584.584 0 0 0-.415.548l-.01 2.074c0 .254.182.486.425.557l1.55.445c.09.273.202.537.333.79l-.79 1.397a.6.6 0 0 0 .092.688l1.457 1.458a.584.584 0 0 0 .689.1l1.417-.768c.253.131.526.233.8.324l.425 1.548a.61.61 0 0 0 .556.416l2.096.01a.583.583 0 0 0 .546-.426l.436-1.538c.273-.101.536-.213.8-.345l1.406.8c.223.112.506.071.678-.1l1.468-1.469a.598.598 0 0 0 .101-.678l-.79-1.407c.132-.264.244-.527.345-.81l1.539-.435a.596.596 0 0 0 .425-.557l-.01-2.085a.587.587 0 0 0-.426-.547l-1.528-.435a8.003 8.003 0 0 0-.344-.8l.78-1.406a.582.582 0 0 0-.092-.678l-1.468-1.469a.598.598 0 0 0-.688-.1l-1.387.779c-.263-.132-.536-.232-.81-.334l-.455-1.55a.587.587 0 0 0-.547-.414zm-.88 3.857a4 4 0 0 1 3.998 3.998 4.007 4.007 0 0 1-3.998 3.998 4.013 4.013 0 0 1-3.999-3.998 4.007 4.007 0 0 1 3.999-3.998zM9.14 12.004a2.851 2.851 0 0 0 2.855 2.854 2.853 2.853 0 0 0 2.864-2.854 2.856 2.856 0 0 0-2.864-2.865 2.853 2.853 0 0 0-2.855 2.865zm-6.853 8.857c0 .475.385.86.85.86a.86.86 0 0 0 .861-.86.855.855 0 1 0-1.71 0zm17.715 0c0 .475.374.86.85.86a.86.86 0 0 0 .86-.86.857.857 0 0 0-.86-.85.849.849 0 0 0-.85.85z"/><path fill="none" stroke="#fff" stroke-linecap="round" stroke-linejoin="round" stroke-miterlimit="50" stroke-width="4" d="M21.439 0a2.568 2.568 0 0 1 2.56 2.58v18.848a2.56 2.56 0 0 1-2.56 2.571H2.56A2.56 2.56 0 0 1 0 21.428V2.58A2.568 2.568 0 0 1 2.56 0zM2.287 3.156a.855.855 0 1 0 1.711-.01.855.855 0 0 0-1.71.01zm17.715 0c0 .466.374.85.85.85s.86-.384.86-.85a.86.86 0 0 0-.86-.86.851.851 0 0 0-.85.86zm-7.127.992c-.617.01-1.356.01-2.075.01a.597.597 0 0 0-.546.415l-.446 1.539c-.263.102-.536.203-.8.334l-1.396-.78a.602.602 0 0 0-.678.101L5.476 7.237a.567.567 0 0 0-.101.678l.77 1.397a5.646 5.646 0 0 0-.325.809l-1.549.445a.584.584 0 0 0-.415.548l-.01 2.074c0 .254.182.486.425.557l1.55.445c.09.273.202.537.333.79l-.79 1.397a.6.6 0 0 0 .092.688l1.457 1.458a.584.584 0 0 0 .689.1l1.417-.768c.253.131.526.233.8.324l.425 1.548a.61.61 0 0 0 .556.416l2.096.01a.583.583 0 0 0 .546-.426l.436-1.538c.273-.101.536-.213.8-.345l1.406.8c.223.112.506.071.678-.1l1.468-1.469a.598.598 0 0 0 .101-.678l-.79-1.407c.132-.264.244-.527.345-.81l1.539-.435a.596.596 0 0 0 .425-.557l-.01-2.085a.587.587 0 0 0-.426-.547l-1.528-.435a8.003 8.003 0 0 0-.344-.8l.78-1.406a.582.582 0 0 0-.092-.678l-1.468-1.469a.598.598 0 0 0-.688-.1l-1.387.779c-.263-.132-.536-.232-.81-.334l-.455-1.55a.587.587 0 0 0-.547-.414zm-.88 3.857a4 4 0 0 1 3.998 3.998 4.007 4.007 0 0 1-3.998 3.998 4.013 4.013 0 0 1-3.999-3.998 4.007 4.007 0 0 1 3.999-3.998zM9.14 12.004a2.851 2.851 0 0 0 2.855 2.854 2.853 2.853 0 0 0 2.864-2.854 2.856 2.856 0 0 0-2.864-2.865 2.853 2.853 0 0 0-2.855 2.865zm-6.853 8.857c0 .475.385.86.85.86a.86.86 0 0 0 .861-.86.855.855 0 1 0-1.71 0zm17.715 0c0 .475.374.86.85.86a.86.86 0 0 0 .86-.86.857.857 0 0 0-.86-.85.849.849 0 0 0-.85.85z" clip-path="url(&quot;#ma70c&quot;)"/></g></g></svg>