<svg xmlns="http://www.w3.org/2000/svg" width="32" height="27" viewBox="0 0 32 27"><g><g><path fill="#fff" d="M0 8.64V7.588c.005-.8.666-1.45 1.485-1.458h.562c.64.031 1.244.295 1.694.74.721-1.758 1.632-3.751 2.2-4.552C6.953.897 8.425.502 9.446.326a29.914 29.914 0 0 1 5.09-.319c1.702-.039 3.404.068 5.088.319 1.022.172 2.494.568 3.506 1.99.568.802 1.475 2.795 2.2 4.553a2.59 2.59 0 0 1 1.684-.733h.561c.812.013 1.465.655 1.476 1.448v1.063c-.028.844-.75 1.507-1.613 1.48h-.568a2.545 2.545 0 0 0-.267-.102 11.626 11.626 0 0 0-3.375-.5c-.226-.001-.457.018-.686.018a11.659 11.659 0 0 0-3.264.67 11.254 11.254 0 0 0-5.223 3.883v.032l-.049.07c-.117.166-.26.367-.398.593l-.072.115v.039l-.055.093-.016.028-.017.028-.036.067-.137.246v.054c-.254.486-.472.988-.653 1.503a10.758 10.758 0 0 0-.594 3.03H5.996v1.115c0 .817-.678 1.48-1.514 1.48H2.523c-.836 0-1.514-.663-1.514-1.48v-7.086a6.116 6.116 0 0 1 1.276-3.892h-.748C.7 10.117.021 9.46 0 8.64zm4.896 4.987c-.002.636.525 1.153 1.175 1.156h2.775a1.175 1.175 0 0 0 1.184-.9 1.151 1.151 0 0 0-.89-1.376L6.375 11.8a1.187 1.187 0 0 0-.308-.039c-.649.002-1.173.518-1.17 1.152v.715zm25.297 2.75a1.181 1.181 0 0 1 1.2 1.163 1.164 1.164 0 0 1-.706 1.07c-.104.047-.214.08-.327.096a1.334 1.334 0 0 1-.16 0c-.66 0-1.195-.523-1.194-1.168 0-.645.534-1.167 1.194-1.167zm-2 10.076a1.148 1.148 0 0 1-.117-1.645 1.211 1.211 0 0 1 1.683-.113 1.146 1.146 0 0 1 .118 1.646 1.209 1.209 0 0 1-.901.399 1.2 1.2 0 0 1-.784-.287zm2.774-5.88a1.173 1.173 0 0 1 1.023 1.314l-.001.01a1.18 1.18 0 0 1-1.176.995c-.06.004-.12.004-.179 0a1.171 1.171 0 0 1-.983-1.343c.094-.555.58-.966 1.156-.977.053-.003.107-.003.16 0zM28.48 14.75l-2.778 5.089c.448 1.34-.3 2.78-1.67 3.22-1.371.437-2.846-.294-3.294-1.634-.448-1.34.3-2.78 1.67-3.219.166-.053.336-.09.51-.11l3.554-4.59a1.212 1.212 0 0 1 1.673-.23c.471.345.613.976.335 1.483zm-11.575 5.59a6.11 6.11 0 0 0 .849 3.51c.239.4.525.773.852 1.11.484.456.498 1.21.03 1.682a1.23 1.23 0 0 1-.71.353 1.44 1.44 0 0 1-.176 0 1.221 1.221 0 0 1-.776-.258 8.539 8.539 0 0 1-2.16-9.03c.145-.417.322-.825.527-1.218l.134-.24.036-.067.056-.092.081-.13c.101-.166.212-.32.327-.473l.02-.067a8.963 8.963 0 0 1 4.177-3.094 9.33 9.33 0 0 1 2.612-.537c.182 0 .365-.016.548-.016a9.327 9.327 0 0 1 1.959.215l-2.027 2.619h-.35a6.264 6.264 0 0 0-4.726 2.386l-.062.086c-.072.099-.14.188-.206.29l-.065.1-.016.025-.03.05-.137.23a6.575 6.575 0 0 0-.372.798 6.054 6.054 0 0 0-.395 1.768z"/></g></g></svg>