<svg xmlns="http://www.w3.org/2000/svg" width="28" height="28" viewBox="0 0 28 28"><g><g><path fill="#fff" d="M0 5.383A5.377 5.377 0 0 1 5.385 0h17.23A5.377 5.377 0 0 1 28 5.383v17.231a5.378 5.378 0 0 1-5.385 5.385H5.385A5.378 5.378 0 0 1 0 22.614zm10.554 13.282H8.508V16.62H6.354v2.046H4.308v2.155h2.046v2.046h2.154V20.82h2.046zM18.703 7.79l-1.436 1.436 1.507 1.507 1.436-1.435 1.436 1.435 1.508-1.507-1.436-1.436 1.436-1.436-1.508-1.508-1.436 1.436-1.436-1.436-1.507 1.508zm-3.626 18.056h7.538a3.218 3.218 0 0 0 3.231-3.231v-7.538h-10.77zM2.154 12.922h10.769V2.153H5.385a3.217 3.217 0 0 0-3.231 3.23zm2.19-6.21h6.21v2.154h-6.21zM17.122 20.82h6.21v2.154h-6.21zm0-3.232h6.21v2.154h-6.21z"/></g></g></svg>