<svg xmlns="http://www.w3.org/2000/svg" width="32" height="31" viewBox="0 0 32 31"><g><g><path fill="#fff" d="M31.945 14.6c-.237 2.718-1.389 6.82-5.528 10.932-3.704 3.682-7.885 4.915-10.74 5.302-.797.108-1.649.165-2.465.165-1.01 0-3.451-.096-4.34-.978L6.32 27.485a3.075 3.075 0 0 1-.914-2.197c0-.83.324-1.61.913-2.198.06-.058.12-.109.182-.154l4.145-3.018a3.121 3.121 0 0 1 2.113-.815c.836 0 1.622.321 2.212.908l2.19 2.177-2.364.626a.725.725 0 1 0 .375 1.402l2.99-.79c.01-.004.017-.011.026-.015l.002.002c1.44-.566 4.456-2.238 6.001-5.398.01-.017.024-.03.033-.05l1.47-3.189a.725.725 0 0 0-.36-.962.732.732 0 0 0-.968.358l-1.253 2.721-2.502-2.487a3.084 3.084 0 0 1-.914-2.197c0-.792.298-1.544.838-2.12l3.164-4.025c.04-.05.081-.098.125-.14a3.12 3.12 0 0 1 2.212-.909c.836 0 1.622.323 2.212.908l2.44 2.425c.69.685 1.536 3.078 1.258 6.251zM24.188 3.617a.733.733 0 0 1-1.013.194 13.92 13.92 0 0 0-7.786-2.362c-7.681 0-13.93 6.209-13.93 13.84 0 3.025.964 5.898 2.786 8.308a.726.726 0 1 1-.582 1.16c-.222 0-.44-.1-.584-.289A15.1 15.1 0 0 1 0 15.29C0 6.86 6.903 0 15.389 0c3.084 0 6.06.903 8.604 2.611a.721.721 0 0 1 .195 1.008zM14.763 6.9c0-.401.327-.725.73-.725.404 0 .73.324.73.725v8.389c0 .251-.13.484-.343.615a.732.732 0 0 1-.708.035l-5.96-2.91a.723.723 0 0 1-.334-.97.73.73 0 0 1 .977-.331l4.908 2.397zm0-3.366v-.31c0-.4.327-.724.73-.724.404 0 .73.324.73.725v.31c0 .4-.326.725-.73.725a.728.728 0 0 1-.73-.726zM3.78 14.448c.403 0 .73.325.73.725 0 .4-.327.726-.73.726H3.47a.728.728 0 0 1-.73-.726c0-.4.326-.725.73-.725zm2.695-7.21a.722.722 0 0 1 0-1.026.734.734 0 0 1 1.032 0l.22.22a.721.721 0 0 1 0 1.025.728.728 0 0 1-1.032 0z"/></g></g></svg>