<svg xmlns="http://www.w3.org/2000/svg" width="24" height="15" viewBox="0 0 24 15"><g><g><path fill="#fff" d="M8.137 7.5c0-2.07 1.731-3.75 3.862-3.75 2.131 0 3.862 1.68 3.862 3.75 0 2.069-1.73 3.75-3.862 3.75-2.13 0-3.862-1.681-3.862-3.75zm1.412-.259h1.278c0-.466.4-.854.88-.854v-1.24c-1.173 0-2.132.93-2.158 2.094zM.279 8.276c-.373-.466-.373-1.113 0-1.552C1.584 5.146 6.246 0 12 0c5.754 0 10.415 5.146 11.72 6.724.373.465.373 1.112 0 1.552C22.414 9.853 17.753 15 12 15 6.246 15 1.584 9.853.28 8.276zm6.127-.777c0 3 2.503 5.432 5.593 5.432s5.594-2.431 5.594-5.432c0-3-2.504-5.43-5.594-5.43-3.09 0-5.593 2.43-5.593 5.43z"/></g></g></svg>