<svg xmlns="http://www.w3.org/2000/svg" width="38" height="26" viewBox="0 0 38 26"><g><g clip-path="url(#clip-3124)"><path fill="#eff6ed" d="M19.486 9.457c0-5.223 4.13-9.457 9.225-9.457s8.793 4.089 9.224 9.293c.66 7.942-5.226 14.592-12.37 16.707a9.475 9.475 0 0 0 4.417-7.189 8.755 8.755 0 0 1-1.271.104c-5.095 0-9.225-4.234-9.225-9.458zM0 9.457C0 4.234 4.13 0 9.225 0s8.793 4.089 9.225 9.293C19.109 17.235 13.224 23.885 6.079 26a9.477 9.477 0 0 0 4.417-7.189c-.417.061-.84.104-1.271.104C4.13 18.915 0 14.681 0 9.457z"/></g></g></svg>