<svg xmlns="http://www.w3.org/2000/svg" width="16" height="16" viewBox="0 0 16 16"><g><g><path fill="#71ad5f" d="M4-.243l4 4L7.757 4 8 4.243 4.243 8 4 7.757 3.757 8l-4-4zM4.243 8L8 11.757 7.757 12l.243.243-4 4L-.243 12l4-4L4 8.243zm4 4L8 12.243l4 4L16.243 12l-4-4-.243.243L11.757 8 8 11.757zM8 3.757l4-4L16.243 4l-4 4L12 7.757 11.757 8 8 4.243 8.243 4zM2.586 4L4 5.414 5.414 4 4 2.586zm8 0L12 5.414 13.414 4 12 2.586zm-8 8L4 13.414 5.414 12 4 10.586zM12 10.586L13.414 12 12 13.414 10.586 12z"/></g></g></svg>