<svg xmlns="http://www.w3.org/2000/svg" width="16" height="15" viewBox="0 0 16 15"><g><g><path fill="#5d8a51" d="M8 0c1.277 1.249 1.533 2.464.768 3.645 1.28-.36 2.177-.167 2.69.58-1.47.082-2.366 1.103-2.69 3.063.99-.89 2.204-1.336 3.642-1.336 2.157 0 3.59 1.684 3.59 3.8 0 2.114-1.926 3.623-3.773 3.34-1.848-.281-1.918-1.733-1.73-2.365.19-.631.532-1.176 1.73-1.176.798 0 1.197.527 1.197 1.58.565-.204.794-.73.686-1.58-.161-1.275-1.464-1.796-2.87-1.514-1.406.282-2.472 1.47-2.472 2.85 0 1.38.972 3.288 3.459 3.6-.387.45-1.04.603-1.957.461-.918-.141-1.674-.831-2.27-2.07-.596 1.239-1.352 1.929-2.27 2.07-.918.142-1.57-.011-1.957-.46 2.487-.313 3.459-2.221 3.459-3.6 0-1.38-1.066-2.57-2.472-2.851-1.406-.282-2.709.24-2.87 1.514-.108.85.12 1.376.686 1.58 0-1.053.4-1.58 1.197-1.58 1.198 0 1.54.545 1.73 1.176.188.632.118 2.084-1.73 2.366C1.926 13.375 0 11.867 0 9.75c0-2.115 1.433-3.8 3.59-3.8 1.438 0 2.652.446 3.642 1.337-.324-1.96-1.22-2.981-2.69-3.063.512-.747 1.409-.94 2.69-.58C6.467 2.464 6.723 1.25 8 0z"/></g></g></svg>