<svg xmlns="http://www.w3.org/2000/svg" width="32" height="32" viewBox="0 0 32 32"><g><g><path fill="#fff" d="M16 31.999c-8.837 0-16-7.164-16-16s7.163-16 16-16c8.836 0 16 7.164 16 16-.01 8.833-7.167 15.991-16 16zm0-30.371c-7.94 0-14.375 6.436-14.375 14.375 0 7.94 6.436 14.375 14.375 14.375s14.375-6.436 14.375-14.375v-.004C30.368 8.063 23.935 1.633 16 1.628zM14.98 21.93a.814.814 0 0 1-1.15-1.15L18.616 16l-4.786-4.782a.814.814 0 0 1 1.15-1.15l5.36 5.36a.812.812 0 0 1 0 1.145l-5.36 5.371z"/></g></g></svg>