<svg xmlns="http://www.w3.org/2000/svg" width="16" height="16" viewBox="0 0 16 16"><g><g><path fill="#71ad5f" d="M16 1.377v13.246C16 15.38 15.42 16 14.712 16H1.288C.579 16 0 15.38 0 14.623V1.377C0 .62.58 0 1.288 0h13.424C15.421 0 16 .62 16 1.377zM9.421 8l3.449-3.688c.94-1.005-.481-2.525-1.421-1.52L8 6.48 4.551 2.792c-.94-1.005-2.36.515-1.421 1.52C4.28 5.542 5.43 6.77 6.578 8L3.13 11.688c-.94 1.005.481 2.524 1.421 1.52L8 9.519l3.449 3.689a.962.962 0 0 0 1.42 0 1.132 1.132 0 0 0 .001-1.52L9.421 8z"/></g></g></svg>