<?xml version="1.0" encoding="utf-8"?>
<!-- Generator: Adobe Illustrator 23.0.3, SVG Export Plug-In . SVG Version: 6.00 Build 0)  -->
<svg version="1.1" id="Layer_1" xmlns="http://www.w3.org/2000/svg" xmlns:xlink="http://www.w3.org/1999/xlink" x="0px" y="0px"
	 viewBox="0 0 2123.21 1062.01" style="enable-background:new 0 0 2123.21 1062.01;" xml:space="preserve">
<style type="text/css">
	.st0{fill:#494949;}
	.st1{fill:#6FB341;}
</style>
<g>
	<g>
		<polygon class="st0" points="569.6,587.59 150.2,509.82 150.2,534.85 569.6,749.01 		"/>
		<polygon class="st1" points="507.94,438.8 569.4,399.76 569.4,817.72 720.36,912.58 720.36,249.65 720.36,149.43 507.94,282.92 		
			"/>
		<polygon class="st1" points="463.07,313 463.07,749.01 313.26,654.85 313.26,407.16 		"/>
		<polygon class="st1" points="268.32,434.7 268.32,627.31 149.81,551.87 149.81,509.82 		"/>
		<rect x="463.07" y="313" class="st0" width="17.89" height="436.02"/>
		<rect x="268.32" y="434.7" class="st0" width="17.89" height="192.61"/>
		<rect x="720.36" y="149.43" class="st0" width="17.89" height="763.14"/>
	</g>
	<g>
		<g>
			<path class="st0" d="M889.21,149.43h169.05v237.92h-64.5V207.08h-39.89v180.27h-64.66V149.43z"/>
			<path class="st0" d="M1093.08,149.43h126.67v57.49h-62.17v33.5h52.66v53.6h-52.66v35.84H1221v57.49h-127.92V149.43z"/>
			<path class="st0" d="M1246.32,149.43h77.75c15.27,0,28.51,3.2,39.73,9.58c11.22,6.39,19.84,15.56,25.86,27.5
				c6.02,11.95,9.04,26.18,9.04,42.69c0,16.41-2.96,30.57-8.88,42.46s-14.41,21.01-25.48,27.34c-11.06,6.34-24.17,9.5-39.34,9.5
				h-14.18v78.84h-64.5V149.43z M1319.71,253.82c5.92-0.1,10.49-2.26,13.71-6.46c3.22-4.21,4.83-10.31,4.83-18.31
				c0-8.1-1.59-14.26-4.75-18.46c-3.17-4.21-7.66-6.31-13.48-6.31h-9.2v49.55H1319.71z"/>
			<path class="st0" d="M1571.57,277.12c6.75,10.34,10.13,22.83,10.13,37.47c0,14.13-3.04,26.69-9.12,37.71
				c-6.07,11.01-14.75,19.61-26.02,25.78c-11.27,6.18-24.44,9.27-39.5,9.27h-85.22V149.43h73.38c15.37,0,28.72,2.68,40.05,8.02
				c11.32,5.35,20.02,12.83,26.09,22.44c6.08,9.61,9.12,20.75,9.12,33.42c0,10.28-2.44,19.16-7.33,26.64s-11.11,12.98-18.7,16.52
				C1555.78,259.9,1564.81,266.78,1571.57,277.12z M1483.85,244.79h9.04c5.71,0,10.18-1.97,13.4-5.92c3.22-3.95,4.83-9.35,4.83-16.2
				c0-14.02-6.34-21.03-19.01-21.03h-8.25V244.79z M1510.8,327.52c3.84-4.47,5.77-10.54,5.77-18.23c0-7.17-1.85-12.86-5.53-17.06
				c-3.69-4.21-8.7-6.31-15.03-6.31h-12.15v48.3h10.28C1501.4,334.22,1506.96,331.99,1510.8,327.52z"/>
			<path class="st0" d="M1712.62,343.26h-45.81l-8.41,44.09h-67.16l62.48-237.92h74.94l62.48,237.92h-70.27L1712.62,343.26z
				 M1702.49,289.82l-11.53-61.39l-0.62-1.4l-1.87,1.4l-11.68,61.39H1702.49z"/>
			<path class="st0" d="M1973.4,149.43v237.92h-64.66v-85.69h-7.94l-23.06,85.69h-66.37l34.74-99.25
				c-8.21-6.02-14.47-13.87-18.77-23.53c-4.31-9.66-6.47-20.98-6.47-33.97c0-16.72,2.96-31.19,8.88-43.39s14.46-21.55,25.63-28.05
				c11.16-6.49,24.38-9.74,39.65-9.74H1973.4z M1908.74,204.28h-9.66c-5.71,0-10.1,2.13-13.16,6.39c-3.07,4.26-4.6,10.39-4.6,18.39
				c0,7.79,1.56,13.81,4.67,18.07c3.12,4.26,7.58,6.39,13.4,6.39h9.35V204.28z"/>
		</g>
		<g>
			<path class="st0" d="M983.36,581.81c4.21,6.91,6.32,15.65,6.32,26.23c0,10.5-2.46,19.59-7.38,27.28
				c-4.91,7.69-11.88,13.6-20.9,17.74c-9.02,4.14-19.52,6.21-31.49,6.21c-6.95,0-14.05-0.89-21.29-2.66
				c-7.25-1.77-13.71-3.96-19.4-6.54l5.32-41.36c11.53,5.99,22.51,8.83,32.93,8.54c4.95-0.07,8.84-1.48,11.65-4.21
				c2.81-2.74,4.21-6.47,4.21-11.2c0-4.81-1.48-8.52-4.44-11.14c-2.96-2.62-7.14-3.94-12.53-3.94h-16.52l0.11-37.37h15.75
				c4.21,0,7.47-1.18,9.76-3.55s3.44-5.66,3.44-9.87c0-3.99-1.32-7.19-3.94-9.59c-2.63-2.4-5.93-3.61-9.93-3.61
				c-4.66,0-9.68,0.59-15.08,1.77c-5.4,1.18-10.05,2.77-13.97,4.77l-3.44-41.25c6.58-2.14,13.32-3.92,20.24-5.32
				c6.91-1.4,12.66-2.11,17.25-2.11c10.65,0,20.11,2.09,28.39,6.27s14.75,10.17,19.4,17.96c4.66,7.8,6.99,16.95,6.99,27.45
				c0,9.02-1.69,16.54-5.05,22.57c-3.37,6.03-8.19,10.3-14.47,12.81C973.12,570.19,979.14,574.9,983.36,581.81z"/>
			<path class="st0" d="M1082.22,623.45h-32.6l-5.99,31.38h-47.79l44.47-169.34h53.34l44.47,169.34h-50.01L1082.22,623.45z
				 M1075.01,585.42l-8.21-43.69l-0.44-1l-1.33,1l-8.32,43.69H1075.01z"/>
			<path class="st0" d="M1154.47,485.5h95.93v39.03h-50.79v20.85h13.19c11.09,0,20.7,2.18,28.83,6.54
				c8.13,4.36,14.38,10.65,18.74,18.85c4.36,8.21,6.54,17.93,6.54,29.17s-2.2,21-6.59,29.28c-4.4,8.28-10.72,14.62-18.97,19.02
				c-8.25,4.4-17.98,6.6-29.22,6.6h-57.66V485.5z M1209.25,615.69c3.99,0,7.12-1.39,9.37-4.16c2.25-2.77,3.38-6.64,3.38-11.59
				s-1.13-8.78-3.38-11.48c-2.26-2.7-5.46-4.05-9.6-4.05h-9.42v31.27H1209.25z"/>
			<path class="st0" d="M1311.83,648.4c-10.91-7.17-19.28-17.47-25.12-30.88c-5.84-13.42-8.76-29.3-8.76-47.63
				c0-18.26,2.92-34.06,8.76-47.41c5.84-13.34,14.21-23.6,25.12-30.77c10.9-7.17,23.79-10.76,38.65-10.76
				c14.86,0,27.72,3.59,38.59,10.76c10.87,7.17,19.22,17.43,25.06,30.77c5.84,13.35,8.76,29.15,8.76,47.41
				c0,18.33-2.9,34.21-8.7,47.63c-5.81,13.42-14.16,23.71-25.06,30.88c-10.91,7.17-23.79,10.76-38.65,10.76
				C1335.61,659.16,1322.73,655.58,1311.83,648.4z M1370.16,604.99c4.55-8.09,6.82-19.76,6.82-34.99c0-15.16-2.27-26.78-6.82-34.88
				c-4.54-8.09-11.11-12.14-19.68-12.14s-15.16,4.07-19.74,12.2c-4.58,8.13-6.88,19.74-6.88,34.82c0,15.23,2.29,26.89,6.88,34.99
				c4.58,8.1,11.16,12.14,19.74,12.14S1365.61,613.09,1370.16,604.99z"/>
			<path class="st0" d="M1441.24,485.5h55.33c10.87,0,20.3,2.27,28.28,6.82c7.98,4.55,14.12,11.07,18.41,19.57
				c4.29,8.5,6.43,18.63,6.43,30.38c0,11.68-2.11,21.75-6.32,30.22c-4.21,8.46-10.26,14.95-18.13,19.46
				c-7.87,4.51-17.21,6.76-28,6.76h-10.09v56.11h-45.91V485.5z M1493.47,559.8c4.21-0.07,7.47-1.61,9.76-4.6
				c2.29-3,3.44-7.34,3.44-13.03c0-5.77-1.13-10.15-3.39-13.14c-2.25-3-5.45-4.49-9.59-4.49h-6.54v35.26H1493.47z"/>
			<path class="st0" d="M1566.16,485.5h45.91v64.21h26.84V485.5h46.13v169.34h-46.13v-64.21h-26.84v64.21h-45.91V485.5z"/>
			<path class="st0" d="M1787.79,623.45h-32.6l-5.99,31.38h-47.8l44.47-169.34h53.34l44.47,169.34h-50.02L1787.79,623.45z
				 M1780.58,585.42l-8.21-43.69l-0.44-1l-1.33,1l-8.31,43.69H1780.58z"/>
			<path class="st0" d="M1973.4,485.5v169.34h-46.02v-60.99h-5.65l-16.41,60.99h-47.24l24.73-70.64
				c-5.84-4.29-10.3-9.87-13.36-16.74c-3.07-6.88-4.6-14.93-4.6-24.17c0-11.9,2.11-22.2,6.32-30.88
				c4.21-8.69,10.29-15.34,18.24-19.96c7.94-4.62,17.35-6.93,28.22-6.93H1973.4z M1927.38,524.54h-6.88c-4.07,0-7.19,1.52-9.37,4.55
				c-2.18,3.03-3.27,7.39-3.27,13.09c0,5.54,1.11,9.83,3.33,12.86c2.22,3.03,5.4,4.55,9.54,4.55h6.65V524.54z"/>
		</g>
		<g>
			<path class="st0" d="M1007.57,908.59h-47.69l-26.86-63.52h-1.43v63.52h-42.38V752.64h42.38v64.95h0.92l24.51-64.95h46.26
				l-32.89,77.11L1007.57,908.59z"/>
			<path class="st0" d="M1034.03,902.67c-10.05-6.6-17.75-16.09-23.13-28.44c-5.38-12.36-8.07-26.98-8.07-43.87
				c0-16.82,2.69-31.37,8.07-43.66c5.38-12.29,13.09-21.74,23.13-28.34c10.04-6.6,21.91-9.91,35.59-9.91
				c13.69,0,25.53,3.3,35.54,9.91c10.01,6.6,17.7,16.05,23.08,28.34c5.38,12.29,8.07,26.84,8.07,43.66
				c0,16.89-2.67,31.51-8.02,43.87c-5.35,12.36-13.04,21.84-23.08,28.44c-10.05,6.6-21.91,9.91-35.6,9.91
				C1055.93,912.58,1044.07,909.28,1034.03,902.67z M1087.75,862.69c4.19-7.45,6.28-18.2,6.28-32.22c0-13.96-2.09-24.66-6.28-32.12
				c-4.19-7.45-10.23-11.18-18.13-11.18c-7.9,0-13.96,3.74-18.18,11.23c-4.22,7.49-6.33,18.18-6.33,32.07
				c0,14.03,2.11,24.77,6.33,32.22c4.22,7.46,10.28,11.18,18.18,11.18C1077.52,873.87,1083.56,870.14,1087.75,862.69z"/>
			<path class="st0" d="M1304.26,908.59h-42.89l-3.57-78.33l-0.2-0.2l-0.2,0.2l-19.1,78.33h-26.86l-21.04-78.33l-0.2-0.2l-0.2,0.2
				l-2.76,78.33h-42.69l10.93-155.95h44.22l24.41,92.22l0.3,0.1l0.2-0.1l24.41-92.22h44.22L1304.26,908.59z"/>
			<path class="st0" d="M1321.99,752.64h110.81v155.95h-42.28V790.43h-26.15v118.16h-42.39V752.64z"/>
			<path class="st0" d="M1527.42,879.69h-30.03l-5.52,28.9h-44.02l40.95-155.95h49.13l40.95,155.95h-46.06L1527.42,879.69z
				 M1520.78,844.66l-7.56-40.24l-0.41-0.92l-1.23,0.92l-7.66,40.24H1520.78z"/>
			<path class="st0" d="M1593.96,752.64h42.28v59.13h24.72v-59.13h42.49v155.95h-42.49v-59.13h-24.72v59.13h-42.28V752.64z"/>
			<path class="st0" d="M1846.17,751.62v156.97h-42.28l0.51-72.41l-38.51,73.74h-39.52V752.64h42.08v78.23l37.79-79.25H1846.17z"/>
			<path class="st0" d="M1973.4,752.64v155.95h-42.38v-56.17h-5.21l-15.12,56.17h-43.51l22.78-65.06
				c-5.38-3.95-9.48-9.09-12.31-15.42c-2.83-6.33-4.24-13.75-4.24-22.26c0-10.96,1.94-20.44,5.82-28.44s9.48-14.13,16.8-18.38
				c7.32-4.26,15.98-6.38,25.99-6.38H1973.4z M1931.02,788.59h-6.33c-3.74,0-6.62,1.4-8.63,4.19c-2.01,2.79-3.01,6.81-3.01,12.05
				c0,5.11,1.02,9.06,3.06,11.85c2.04,2.79,4.97,4.19,8.78,4.19h6.13V788.59z"/>
		</g>
	</g>
</g>
</svg>
