<svg xmlns="http://www.w3.org/2000/svg" width="643.32mm" height="269.23mm" viewBox="0 0 1823.59 763.16">
  <g>
    <g>
      <polygon points="419.79 438.17 0.39 360.4 0.39 385.43 419.79 599.59 419.79 438.17" style="fill: #494949"/>
      <polygon points="358.13 289.38 419.59 250.34 419.59 668.3 570.55 763.16 570.55 100.23 570.55 0.01 358.13 133.5 358.13 289.38" style="fill: #6fb341"/>
      <polygon points="313.26 163.58 313.26 599.59 163.45 505.43 163.45 257.74 313.26 163.58" style="fill: #6fb341"/>
      <polygon points="118.51 285.28 118.51 477.89 0 402.45 0 360.4 118.51 285.28" style="fill: #6fb341"/>
      <rect x="313.26" y="163.58" width="17.89" height="436.02" style="fill: #494949"/>
      <rect x="118.51" y="285.28" width="17.89" height="192.61" style="fill: #494949"/>
      <rect x="570.55" y="0.01" width="17.89" height="763.14" style="fill: #494949"/>
    </g>
    <g>
      <g>
        <path d="M739,149.43h169V387.35h-64.5V207.08H803.67V387.35H739V149.43Z" transform="translate(0.39 -149.42)" style="fill: #494949"/>
        <path d="M942.88,149.43h126.67v57.49h-62.17v33.5H1060V294h-52.66v35.84h63.42v57.49H942.88Z" transform="translate(0.39 -149.42)" style="fill: #494949"/>
        <path d="M1096.12,149.43h77.75q22.91,0,39.73,9.58a64,64,0,0,1,25.86,27.5q9,17.92,9,42.69,0,24.62-8.88,42.46A63,63,0,0,1,1214.14,299q-16.59,9.51-39.34,9.5h-14.18v78.84h-64.5Zm73.39,104.39q8.88-.15,13.71-6.46t4.83-18.31q0-12.15-4.75-18.46t-13.48-6.31h-9.2v49.55h8.89Z" transform="translate(0.39 -149.42)" style="fill: #494949"/>
        <path d="M1421.37,277.12q10.13,15.51,10.13,37.47,0,21.2-9.12,37.71a64.33,64.33,0,0,1-26,25.78q-16.91,9.27-39.5,9.27h-85.22V149.43H1345q23.05,0,40.05,8t26.09,22.44q9.12,14.42,9.12,33.42,0,15.42-7.33,26.64a44.66,44.66,0,0,1-18.7,16.52Q1411.25,261.61,1421.37,277.12Zm-87.72-32.33h9q8.56,0,13.4-5.92t4.83-16.2q0-21-19-21h-8.25v43.15Zm27,82.73q5.76-6.71,5.77-18.23,0-10.76-5.53-17.06t-15-6.31h-12.15v48.3h10.28Q1354.83,334.22,1360.6,327.52Z" transform="translate(0.39 -149.42)" style="fill: #494949"/>
        <path d="M1562.42,343.26h-45.81l-8.41,44.09H1441l62.48-237.92h74.94l62.48,237.92h-70.27Zm-10.13-53.44-11.53-61.39-.62-1.4-1.87,1.4-11.68,61.39Z" transform="translate(0.39 -149.42)" style="fill: #494949"/>
        <path d="M1823.2,149.43V387.35h-64.66V301.66h-7.94l-23.06,85.69h-66.37l34.74-99.25a57.69,57.69,0,0,1-18.77-23.53q-6.47-14.49-6.47-34,0-25.08,8.88-43.39a63.77,63.77,0,0,1,25.63-28.05q16.74-9.74,39.65-9.74h78.37Zm-64.66,54.85h-9.66q-8.56,0-13.16,6.39t-4.6,18.39q0,11.68,4.67,18.07t13.4,6.39h9.35Z" transform="translate(0.39 -149.42)" style="fill: #494949"/>
      </g>
      <g>
        <path d="M833.16,581.81q6.32,10.36,6.32,26.23t-7.38,27.28a47.67,47.67,0,0,1-20.9,17.74q-13.53,6.21-31.49,6.21a89.49,89.49,0,0,1-21.29-2.66,110.39,110.39,0,0,1-19.4-6.54l5.32-41.36q17.3,9,32.93,8.54,7.43-.11,11.65-4.21t4.21-11.2q0-7.21-4.44-11.14t-12.53-3.94H759.64l.11-37.37H775.5q6.32,0,9.76-3.55T788.7,536a12.39,12.39,0,0,0-3.94-9.59,14.16,14.16,0,0,0-9.93-3.61,70.86,70.86,0,0,0-15.08,1.77,58,58,0,0,0-14,4.77l-3.44-41.25a182.14,182.14,0,0,1,20.24-5.32,90,90,0,0,1,17.25-2.11q16,0,28.39,6.27a46.5,46.5,0,0,1,19.4,18q7,11.7,7,27.45,0,13.53-5,22.57a28.13,28.13,0,0,1-14.47,12.81A31.83,31.83,0,0,1,833.16,581.81Z" transform="translate(0.39 -149.42)" style="fill: #494949"/>
        <path d="M932,623.45h-32.6l-6,31.38H845.64l44.47-169.34h53.34l44.47,169.34h-50Zm-7.21-38-8.21-43.69-.44-1-1.33,1-8.32,43.69Z" transform="translate(0.39 -149.42)" style="fill: #494949"/>
        <path d="M1004.27,485.5h95.93v39h-50.79v20.85h13.19q16.63,0,28.83,6.54a44.78,44.78,0,0,1,18.74,18.85q6.54,12.32,6.54,29.17t-6.59,29.28a45,45,0,0,1-19,19q-12.37,6.6-29.22,6.6h-57.66Zm54.78,130.19a11.42,11.42,0,0,0,9.37-4.16q3.38-4.16,3.38-11.59t-3.38-11.48q-3.39-4.05-9.6-4h-9.42v31.27h9.65Z" transform="translate(0.39 -149.42)" style="fill: #494949"/>
        <path d="M1161.63,648.4q-16.37-10.75-25.12-30.88t-8.76-47.63q0-27.39,8.76-47.41t25.12-30.77Q1178,481,1200.28,481t38.59,10.76q16.3,10.76,25.06,30.77t8.76,47.41q0,27.5-8.7,47.63t-25.06,30.88q-16.37,10.75-38.65,10.76T1161.63,648.4ZM1220,605q6.83-12.14,6.82-35T1220,535.12Q1213.15,523,1200.28,523t-19.74,12.2q-6.87,12.2-6.88,34.82,0,22.84,6.88,35t19.74,12.14Q1213.15,617.13,1220,605Z" transform="translate(0.39 -149.42)" style="fill: #494949"/>
        <path d="M1291,485.5h55.33q16.3,0,28.28,6.82a45.62,45.62,0,0,1,18.41,19.57q6.44,12.75,6.43,30.38t-6.32,30.22A44.91,44.91,0,0,1,1375,592q-11.8,6.77-28,6.76H1337v56.11H1291V485.5Zm52.23,74.3a11.85,11.85,0,0,0,9.76-4.6q3.44-4.5,3.44-13T1353.08,529a11.27,11.27,0,0,0-9.59-4.49h-6.54V559.8Z" transform="translate(0.39 -149.42)" style="fill: #494949"/>
        <path d="M1416,485.5h45.91v64.21h26.84V485.5h46.13V654.84h-46.13V590.63h-26.84v64.21H1416Z" transform="translate(0.39 -149.42)" style="fill: #494949"/>
        <path d="M1637.59,623.45H1605l-6,31.38h-47.8l44.47-169.34H1649l44.47,169.34h-50Zm-7.21-38-8.21-43.69-.44-1-1.33,1-8.31,43.69Z" transform="translate(0.39 -149.42)" style="fill: #494949"/>
        <path d="M1823.2,485.5V654.84h-46v-61h-5.65l-16.41,61h-47.24l24.73-70.64a41.13,41.13,0,0,1-13.36-16.74q-4.6-10.32-4.6-24.17,0-17.85,6.32-30.88a45.28,45.28,0,0,1,18.24-20q11.91-6.93,28.22-6.93h55.77Zm-46,39h-6.88a10.84,10.84,0,0,0-9.37,4.55q-3.27,4.55-3.27,13.09,0,8.31,3.33,12.86a11.12,11.12,0,0,0,9.54,4.55h6.65Z" transform="translate(0.39 -149.42)" style="fill: #494949"/>
      </g>
      <g>
        <path d="M857.37,908.59H809.68l-26.86-63.52h-1.43v63.52H739v-156h42.38v65h.92l24.51-65h46.26l-32.89,77.11Z" transform="translate(0.39 -149.42)" style="fill: #494949"/>
        <path d="M883.83,902.67q-15.07-9.9-23.13-28.44t-8.07-43.87q0-25.23,8.07-43.66t23.13-28.34q15.06-9.9,35.59-9.91T955,758.36q15,9.9,23.08,28.34t8.07,43.66q0,25.34-8,43.87T955,902.67q-15.08,9.9-35.6,9.91T883.83,902.67Zm53.72-40q6.28-11.18,6.28-32.22t-6.28-32.12q-6.28-11.18-18.13-11.18T901.24,798.4q-6.33,11.23-6.33,32.07,0,21,6.33,32.22t18.18,11.18Q931.27,873.87,937.55,862.69Z" transform="translate(0.39 -149.42)" style="fill: #494949"/>
        <path d="M1154.06,908.59h-42.89l-3.57-78.33-.2-.2-.2.2-19.1,78.33h-26.86l-21-78.33-.2-.2-.2.2L1037,908.59H994.35l10.93-156h44.22l24.41,92.22.3.1.2-.1,24.41-92.22H1143Z" transform="translate(0.39 -149.42)" style="fill: #494949"/>
        <path d="M1171.79,752.64H1282.6v156h-42.28V790.43h-26.15V908.59h-42.39V752.64Z" transform="translate(0.39 -149.42)" style="fill: #494949"/>
        <path d="M1377.22,879.69h-30l-5.52,28.9h-44l40.95-156h49.13l40.95,156h-46.06Zm-6.64-35L1363,804.42l-.41-.92-1.23.92-7.66,40.24Z" transform="translate(0.39 -149.42)" style="fill: #494949"/>
        <path d="M1443.76,752.64H1486v59.13h24.72V752.64h42.49v156h-42.49V849.46H1486v59.13h-42.28Z" transform="translate(0.39 -149.42)" style="fill: #494949"/>
        <path d="M1696,751.62v157h-42.28l.51-72.41-38.51,73.74h-39.52V752.64h42.08v78.23L1656,751.62Z" transform="translate(0.39 -149.42)" style="fill: #494949"/>
        <path d="M1823.2,752.64v156h-42.38V852.42h-5.21l-15.12,56.17H1717l22.78-65.06a38,38,0,0,1-12.31-15.42q-4.24-9.5-4.24-22.26,0-16.44,5.82-28.44a41.72,41.72,0,0,1,16.8-18.38q11-6.39,26-6.38h51.38Zm-42.38,36h-6.33a10,10,0,0,0-8.63,4.19q-3,4.18-3,12,0,7.66,3.06,11.85a10.22,10.22,0,0,0,8.78,4.19h6.13V788.59Z" transform="translate(0.39 -149.42)" style="fill: #494949"/>
      </g>
    </g>
  </g>
</svg>
