<svg xmlns="http://www.w3.org/2000/svg" width="18" height="24" viewBox="0 0 18 24"><g><g><path fill="#fff" d="M11.531 1.366v.92H13.5v2.856h-9V2.285h1.969v-.92C6.469.61 7.598 0 9 0c1.402 0 2.531.61 2.531 1.367zM3.375 3.999v1.715c0 .299.268.571.562.571h10.125a.59.59 0 0 0 .563-.571V3.999h2.531c.468 0 .844.383.844.857v18.286a.848.848 0 0 1-.844.857H.844A.848.848 0 0 1 0 23.142V4.856C0 4.382.376 4 .844 4zm0 6.572a.85.85 0 0 0 .844.857.85.85 0 0 0 .843-.857.85.85 0 0 0-.843-.857.85.85 0 0 0-.844.857zm3.63.027c.014.315.278.559.589.544h6.484a.567.567 0 0 0 .555-.58.566.566 0 0 0-.57-.562H7.54a.569.569 0 0 0-.536.598zm-3.63 3.687a.85.85 0 0 0 .844.857.85.85 0 0 0 .843-.857.85.85 0 0 0-.843-.857.85.85 0 0 0-.844.857zm3.63.027c.014.316.278.56.589.544h6.484a.567.567 0 0 0 .555-.58.567.567 0 0 0-.57-.562H7.54a.569.569 0 0 0-.536.598zM3.375 18a.85.85 0 0 0 .844.857.85.85 0 0 0 .843-.857.85.85 0 0 0-.843-.858.85.85 0 0 0-.844.858zm4.166-.572a.569.569 0 0 0-.536.599c.014.315.278.559.589.544h6.484a.568.568 0 0 0 .555-.58.567.567 0 0 0-.57-.563H7.54z"/></g></g></svg>