<svg xmlns="http://www.w3.org/2000/svg" width="32" height="32" viewBox="0 0 32 32">
  <g id="Group_60" data-name="Group 60" transform="translate(-807 -481)">
    <circle id="Ellipse_2" data-name="Ellipse 2" cx="16" cy="16" r="16" transform="translate(807 481)" fill="#71ad5f"/>
    <path id="Shape_512_copy" data-name="Shape 512 copy" d="M821.271,502.247l-4.574-4.576a1.725,1.725,0,0,1-.362-1.975,1.708,1.708,0,0,1,2.731-.461l2.172,2.173a1.053,1.053,0,0,0,1.514,0l7.667-7.671a2.161,2.161,0,0,0-.3-3.292,12.731,12.731,0,1,0,5.561,11.688,12.073,12.073,0,0,0-.263-3.951,2.125,2.125,0,0,0-3.587-1.021l-9.049,9.087A1.052,1.052,0,0,1,821.271,502.247Z" fill="#fff"/>
  </g>
</svg>
