<svg xmlns="http://www.w3.org/2000/svg" width="69" height="65" viewBox="0 0 69 65"><g><g clip-path="url(#clip-3171)"><path fill="#eff6ed" d="M33.279 54.41L19.467 40.576c-1.59-1.592-2.086-4.08-1.093-5.972 1.69-3.284 5.862-3.782 8.247-1.393l6.558 6.57c1.292 1.293 3.28 1.293 4.571 0l23.151-23.193c2.882-2.886 2.385-7.664-.894-9.954C53.251 2.055 45.003-.434 36.16.064 16.486 1.26.688 17.483-.008 37.092c-.795 22.993 18.482 41.705 41.633 39.814C60.107 75.413 75.21 60.483 76.799 41.97c.398-4.18.1-8.162-.794-11.944-1.094-4.977-7.254-6.67-10.831-3.086L37.849 54.41c-1.291 1.294-3.279 1.294-4.57 0z"/></g></g></svg>