<svg xmlns="http://www.w3.org/2000/svg" width="20" height="15" viewBox="0 0 20 15"><g><g><path fill="#e4ece2" d="M19.546-.001c.25 0 .454.21.454.469V14.53c0 .26-.204.47-.455.47a.462.462 0 0 1-.454-.47v-3.28h-.91v2.344a.461.461 0 0 1-.454.468h-7.273V-.001H15c1.756.003 3.18 1.47 3.182 3.282v.468h.909V.468c0-.26.203-.469.454-.469zm-6.819 6.094a.462.462 0 0 0-.454-.469.462.462 0 0 0-.455.47v1.874c0 .26.203.468.455.468.25 0 .454-.209.454-.468zm6.364 4.219V4.687h-.91v5.625zM5-.001h4.545v14.063H2.272a.462.462 0 0 1-.454-.469v-2.344H.91v3.281c0 .26-.203.47-.455.47A.462.462 0 0 1 0 14.53V.468c0-.259.204-.469.454-.469.252 0 .455.21.455.469v3.281h.91v-.468C1.82 1.469 3.243 0 5-.001zM1.818 10.312V4.687H.91v5.625zm5.455-2.344c0 .26.203.468.454.468s.455-.209.455-.468V6.093a.462.462 0 0 0-.455-.469.462.462 0 0 0-.454.47z"/></g></g></svg>