<svg xmlns="http://www.w3.org/2000/svg" width="24" height="16" viewBox="0 0 24 16"><g><g><path fill="#fff" d="M2.625 12.877h5.288c.262 1.288 1.012 2.42 2.024 3.122H2.625zm6-.936V3.863c0-2.224 1.687-3.864 3.787-3.864h7.725C22.275 0 24 1.677 24 3.863V13.93c0 1.132-.862 2.03-1.912 2.03H12.45a2.34 2.34 0 0 1-.75-.118c-1.463-.312-2.588-1.483-2.962-3.005a3.25 3.25 0 0 1-.113-.897zm7.912-.937c1.875 0 3.413-1.6 3.413-3.55 0-1.952-1.538-3.552-3.413-3.552-1.875 0-3.412 1.6-3.412 3.551-.038 1.952 1.5 3.55 3.412 3.55zm-4.912 2.693c.637 0 1.162-.547 1.162-1.21 0-.664-.525-1.21-1.162-1.21-.638 0-1.163.546-1.163 1.21 0 .663.525 1.21 1.163 1.21zM1.875 16H0V9.755h1.875zM16.537 5.463c1.05 0 1.913.897 1.913 1.99s-.863 1.99-1.913 1.99-1.912-.897-1.912-1.99a1.913 1.913 0 0 1 1.912-1.99z"/></g></g></svg>