<svg xmlns="http://www.w3.org/2000/svg" width="32" height="27" viewBox="0 0 32 27"><g><g><path fill="#71b05e" d="M32 13.645v5.515c0 1.452-1.073 1.936-2.439 1.936v2.13c0 2.031-1.659 3.773-3.707 3.773H3.707C1.658 27 0 25.257 0 23.225V3.87C0 1.741 1.854 0 4 0h18.439c2.049 0 3.707 1.644 3.707 3.677v2.322c1.952.29 3.415 1.645 3.415 3.677v2.033c1.366 0 2.439.484 2.439 1.936zM4 5.999h20.195V3.677c0-.968-.78-1.743-1.854-1.743H4c-1.17 0-2.049.871-2.049 2.033C1.951 5.031 2.83 6 4 6zm26.146 7.549h-6.048c-3.708 0-3.708 5.709 0 5.709h6.048zm-3.902 4.451c-.878 0-1.659-.677-1.659-1.645 0-.871.78-1.548 1.659-1.548.878 0 1.56.677 1.56 1.548 0 .968-.682 1.645-1.56 1.645z"/></g></g></svg>