<svg xmlns="http://www.w3.org/2000/svg" width="20" height="20" viewBox="0 0 20 20"><g><g><path fill="#e4ece2" d="M18.689 8.998v6.013h.822c.245 0 .467.2.467.468v2.382a.47.47 0 0 1-.467.468h-.822v1.203a.47.47 0 0 1-.467.467h-2.178a.47.47 0 0 1-.466-.467v-1.203H14.2v1.203a.47.47 0 0 1-.467.467h-2.6a.47.47 0 0 1-.466-.467v-1.203h-1.29v1.203a.47.47 0 0 1-.466.467H6.533a.47.47 0 0 1-.466-.467v-1.203H4.689v1.203a.47.47 0 0 1-.467.467h-2.4a.47.47 0 0 1-.467-.467v-1.203H.467A.47.47 0 0 1 0 17.86V15.48c0-.246.2-.468.467-.468h.888V8.975H.467A.47.47 0 0 1 0 8.508V6.125c0-.245.2-.468.467-.468h.977a6.709 6.709 0 0 1 2.49-4.253c.288-.245.755-.023.755.378v3.875h1.378V1.16c0-.178.088-.335.244-.424.8-.4 1.667-.668 2.578-.735a.468.468 0 0 1 .51.468V5.68h1.268V0c1.222 0 2.355.334 3.333.892.133.066.222.244.222.4v4.343H15.6V1.938c0-.4.467-.623.778-.356a6.72 6.72 0 0 1 2.244 4.075h.911c.245 0 .467.2.467.468V8.53a.47.47 0 0 1-.467.468zm-12.6 6.013V8.998H4.71v6.013zm4.578 0V8.998H9.4v6.013zm4.933 0V8.998h-1.378v6.013z"/></g></g></svg>