<svg xmlns="http://www.w3.org/2000/svg" width="24" height="19" viewBox="0 0 24 19"><g><g><path fill="#eff6ed" d="M22.364 8.027v5.352H24v1.874h-1.636v3.746h-6v-3.746H15v3.746H9v-3.746H7.636v3.746h-6v-3.746H0v-1.874h1.636V8.027H0V6.154h1.636v-3.21l3-2.945 3 2.944v3.211H9v-3.21l3-2.945 3 2.944v3.211h1.364v-3.21l3-2.945 3 2.944v3.211H24v1.873zM5.727 7.224c0-.59-.488-1.07-1.09-1.07-.603 0-1.092.48-1.092 1.07 0 .592.489 1.07 1.091 1.07a1.08 1.08 0 0 0 1.091-1.07zM9 8.027H7.636v5.352H9zm4.09-.803c0-.59-.488-1.07-1.09-1.07a1.08 1.08 0 0 0-1.091 1.07c0 .592.488 1.07 1.091 1.07a1.08 1.08 0 0 0 1.09-1.07zm3.274.803H15v5.352h1.364zm4.09-.803c0-.59-.488-1.07-1.09-1.07-.603 0-1.091.48-1.091 1.07 0 .592.488 1.07 1.09 1.07a1.08 1.08 0 0 0 1.092-1.07z"/></g></g></svg>