<svg xmlns="http://www.w3.org/2000/svg" width="24" height="24" viewBox="0 0 24 24"><g><g><path fill="#6fc256" d="M6.681 7.491a.937.937 0 0 1 0-1.872H17.32a.936.936 0 0 1 0 1.872zM4.39-.002h15.22a4.38 4.38 0 0 1 3.098 1.288v.005A4.371 4.371 0 0 1 24 4.389v15.22a4.366 4.366 0 0 1-1.292 3.098h-.005A4.361 4.361 0 0 1 19.61 24H4.39a4.383 4.383 0 0 1-3.103-1.292A4.381 4.381 0 0 1 0 19.61V4.39c0-1.207.495-2.301 1.287-3.098v-.005A4.4 4.4 0 0 1 4.39-.002zm15.22 1.873H4.39c-.693 0-1.32.283-1.778.74a2.497 2.497 0 0 0-.74 1.778v15.22c0 .688.283 1.32.74 1.773.457.458 1.085.74 1.778.74h15.22c.693 0 1.32-.282 1.778-.736l-.005-.004c.457-.453.74-1.085.74-1.773V4.39c0-.694-.283-1.326-.735-1.778h-.005a2.496 2.496 0 0 0-1.773-.74zm-3.187 16.592a.935.935 0 0 1 0-1.872h.896a.937.937 0 0 1 0 1.872zm-4.871 0a.936.936 0 1 1 0-1.872h.891a.936.936 0 1 1 0 1.872zm-4.87 0a.936.936 0 1 1 0-1.872h.89a.936.936 0 1 1 0 1.872zm0-3.315a.937.937 0 1 1 0-1.876h.89a.938.938 0 1 1 0 1.876zm4.87 0a.937.937 0 1 1 0-1.876h.891a.938.938 0 1 1 0 1.876zm4.87 0a.936.936 0 0 1-.933-.937c0-.52.42-.94.934-.94h.896c.513 0 .933.42.933.94 0 .518-.42.937-.933.937zm0-3.319a.937.937 0 0 1 0-1.872h.897a.937.937 0 0 1 0 1.872zm-4.87 0a.938.938 0 0 1-.938-.938c0-.519.42-.934.938-.934h.891c.519 0 .938.415.938.934 0 .519-.42.938-.938.938zm-4.87 0a.938.938 0 0 1-.939-.938c0-.519.42-.934.938-.934h.891c.52 0 .939.415.939.934 0 .519-.42.938-.939.938z"/></g></g></svg>