<svg xmlns="http://www.w3.org/2000/svg" width="14" height="14" viewBox="0 0 14 14">
<defs>
    <style>
      .cls-1 {
        fill: #fff;
        fill-rule: evenodd;
      }
    </style>
  </defs>
  <path class="cls-1" d="M1304,9a7,7,0,1,0,7,7A7,7,0,0,0,1304,9Zm0,12.646A5.646,5.646,0,1,1,1309.65,16,5.648,5.648,0,0,1,1304,21.645Zm0.68-9.258V16a0.667,0.667,0,0,1-.2.479l-1.81,1.806a0.678,0.678,0,1,1-.96-0.957l1.61-1.608V12.386A0.68,0.68,0,0,1,1304.68,12.386Z" transform="translate(-1297 -9)"/>
</svg>