<svg xmlns="http://www.w3.org/2000/svg" width="24" height="24" viewBox="0 0 24 24"><g><g><path fill="#6fc256" d="M24 4.824v14.35c0 2.652-2.173 4.825-4.825 4.825H4.825C2.173 24 0 21.826 0 19.174V4.824C0 2.172 2.173-.001 4.825-.001h14.35C21.827-.001 24 2.172 24 4.824zm-1.82 0a2.997 2.997 0 0 0-3.005-3.006H4.825A2.997 2.997 0 0 0 1.82 4.824v14.35a2.997 2.997 0 0 0 3.006 3.005h14.35a2.997 2.997 0 0 0 3.006-3.005zm-3.182 9.145a.79.79 0 0 1 .227 1.036l-.985 1.718a.776.776 0 0 1-1.01.304l-.632-.304a1.874 1.874 0 0 0-1.718.076c-.05.025-.076.05-.126.075-.531.278-.86.835-.91 1.44l-.05.683a.791.791 0 0 1-.784.707h-1.995c-.405 0-.758-.303-.784-.707l-.05-.682c-.025-.606-.38-1.137-.91-1.44-.05-.026-.075-.051-.126-.076-.53-.328-1.162-.328-1.718-.076l-.631.304c-.38.176-.809.05-1.01-.304L4.8 15.005a.79.79 0 0 1 .227-1.036l.556-.378c.53-.354.808-.96.808-1.592 0-.631-.277-1.238-.808-1.591l-.556-.38A.789.789 0 0 1 4.8 8.993l.985-1.718a.776.776 0 0 1 1.01-.303l.632.303a1.874 1.874 0 0 0 1.718-.077c.05-.025.076-.05.126-.075.53-.277.86-.833.91-1.44L10.206 5a.792.792 0 0 1 .783-.708h1.996c.404 0 .758.304.783.708l.025.682c.026.607.38 1.137.91 1.44.05.025.076.05.126.075.53.33 1.162.33 1.718.077l.632-.303c.379-.177.808-.05 1.01.303l.986 1.718a.789.789 0 0 1-.228 1.035l-.556.38c-.53.353-.808.96-.808 1.59 0 .633.278 1.239.808 1.593zM15.486 12A3.493 3.493 0 0 0 12 8.512a3.493 3.493 0 0 0-3.487 3.485A3.494 3.494 0 0 0 12 15.485a3.494 3.494 0 0 0 3.486-3.487zM12 10.23A1.768 1.768 0 1 1 12 13.766 1.768 1.768 0 0 1 12 10.231z"/></g></g></svg>