<svg xmlns="http://www.w3.org/2000/svg" width="24" height="24" viewBox="0 0 24 24">
<defs>
    <style>
      .cls-1 {
        fill: #6fc256;
        fill-rule: evenodd;
      }
    </style>
  </defs>
  <path class="cls-1" d="M1062.3,72.854a1.74,1.74,0,0,1,2.52,0l1.35,1.258a1.911,1.911,0,0,1,0,2.517l-1.44,1.438a20.511,20.511,0,0,0,6.2,6.2l1.44-1.349a1.742,1.742,0,0,1,2.52,0l1.35,1.259a1.911,1.911,0,0,1,0,2.516C1071.74,91.55,1057.45,77.258,1062.3,72.854ZM1069.04,68A12,12,0,1,1,1057,80.044,12.026,12.026,0,0,1,1069.04,68Zm0,1.169a10.876,10.876,0,1,0,10.88,10.877A10.853,10.853,0,0,0,1069.04,69.167Z" transform="translate(-1057 -68)"/>
</svg>