<svg xmlns="http://www.w3.org/2000/svg" width="20" height="20" viewBox="0 0 20 20"><g><g><path fill="#71ad5f" d="M11.756 15.217c.278-.2.695-1.865 2.501-1.599.556.133 1.807.533 2.78.8 2.431.799 3.404 1.265 2.778 3.064-.278.866-1.25 1.666-2.084 2.065C11.061 22.745-3.18 8.155.641 1.96 1.056 1.16 1.96.294 2.932.094c2.084-.4 2.223.467 2.918 2.599.278.866.486 2.331.625 2.864C6.615 7.29 4.948 7.69 4.67 7.956c.555 2.464 4.585 6.595 7.086 7.261zm4.516-4.53c-.139 1-1.737.8-1.598-.2.417-2.798-1.876-5.196-4.863-4.996-1.042.066-1.112-1.466-.07-1.532 4.03-.267 7.087 2.93 6.531 6.728zm3.404.333c-.07.999-1.667.866-1.598-.133.487-4.93-3.265-8.794-8.406-8.66-1.042 0-1.042-1.533 0-1.533 6.044-.133 10.56 4.463 10.004 10.326z"/></g></g></svg>