<svg xmlns="http://www.w3.org/2000/svg" width="12" height="12" viewBox="0 0 12 12"><g><g><path fill="#b0b0b0" d="M10.415 11.445c-.2.187-.437.32-.694.414-.62.224-1.324.15-1.949-.007-.825-.208-1.609-.592-2.329-1.043a13.62 13.62 0 0 1-4.316-4.345C.685 5.747.307 4.963.109 4.14c-.147-.621-.211-1.322.022-1.93.17-.44.48-.734.804-1.057l.617-.618c.122-.125.24-.26.38-.365.363-.269.846-.208 1.162.096.141.134.276.275.413.413l.602.602c.128.128.272.253.374.4.25.362.166.836-.131 1.14-.166.17-.336.336-.506.506-.13.13-.277.256-.397.4l-.038.054-.038.074c-.007.013-.02.055 0 0-.003.016-.01.029-.013.041-.01.033-.022.064-.029.097-.002.016-.014.09-.014.08-.002.025-.002.05-.005.076a1.85 1.85 0 0 0 .003.23c.01.123.048.308.096.465.055.18.122.355.205.525.205.426.467.823.768 1.185.627.755 1.405 1.418 2.3 1.831.308.14.676.253.973.269.077.003.15.003.228-.003h.021a.687.687 0 0 1 .03-.007c.032-.006.067-.012.099-.022a1.13 1.13 0 0 0 .085-.028l.056-.03c.022-.013.045-.025.067-.041l.002-.002c.037-.025-.037.033-.002.002l.002-.002c.009-.006.018-.015.027-.024.297-.295.585-.602.89-.89.335-.32.844-.359 1.209-.054.128.105.24.233.355.349.33.33.669.65.986.986a.904.904 0 0 1 .019 1.242c-.106.119-.221.224-.333.336l-.944.944a.37.37 0 0 1-.04.035z"/></g></g></svg>